<svg width="30" height="47" viewBox="0 0 30 47" fill="none" xmlns="http://www.w3.org/2000/svg">
<g clip-path="url(#clip0_404_51)">
<path d="M20.984 26.1852L21.7579 25.5921C22.1889 25.2622 22.8183 25.4665 22.9721 25.9867L23.2493 26.9214C23.3491 27.2573 23.6615 27.4851 24.0125 27.4757L24.9872 27.4511C25.5309 27.4369 25.9184 27.9724 25.7376 28.4844L25.4123 29.4039C25.296 29.7339 25.4146 30.1026 25.7035 30.3011L26.5067 30.8542C26.9542 31.1618 26.9542 31.8229 26.5067 32.1318L25.7035 32.6848C25.4146 32.8833 25.2949 33.2509 25.4123 33.582L25.7376 34.5015C25.9184 35.0135 25.5297 35.549 24.9872 35.5348L24.0125 35.5102C23.6626 35.5008 23.3491 35.7286 23.2493 36.0645L22.9721 36.9992C22.8171 37.5206 22.1889 37.7249 21.7579 37.3938L20.984 36.8008C20.7057 36.587 20.3194 36.587 20.0411 36.8008L19.2672 37.3938C18.8363 37.7237 18.2069 37.5194 18.053 36.9992L17.7759 36.0645C17.6761 35.7286 17.3637 35.5008 17.0126 35.5102L16.0379 35.5348C15.4942 35.549 15.1067 35.0135 15.2876 34.5015L15.6129 33.582C15.7291 33.2521 15.6105 32.8833 15.3216 32.6848L14.5184 32.1318C14.071 31.8241 14.071 31.163 14.5184 30.8542L15.3216 30.3011C15.6105 30.1026 15.7303 29.7351 15.6129 29.4039L15.2876 28.4844C15.1067 27.9724 15.4954 27.4369 16.0379 27.4511L17.0126 27.4757C17.3625 27.4851 17.6761 27.2573 17.7759 26.9214L18.053 25.9867C18.208 25.4653 18.8363 25.261 19.2672 25.5921L20.0411 26.1852C20.3194 26.3989 20.7057 26.3989 20.984 26.1852Z" stroke="white" stroke-width="1.32354" stroke-linecap="round" stroke-linejoin="round"/>
<path d="M17.1675 39.4291H0.761047V1.03687H29.101V39.4291H23.8588" stroke="white" stroke-width="1.32354" stroke-linecap="round" stroke-linejoin="round"/>
<path d="M6.94995 7.8562H23.9607" stroke="white" stroke-width="1.32354" stroke-linecap="round" stroke-linejoin="round"/>
<path d="M6.94995 14.0659H23.9607" stroke="white" stroke-width="1.32354" stroke-linecap="round" stroke-linejoin="round"/>
<path d="M6.95007 20.2759H23.9608" stroke="white" stroke-width="1.32354" stroke-linecap="round" stroke-linejoin="round"/>
<path d="M6.95007 26.4858H11.42" stroke="white" stroke-width="1.32354" stroke-linecap="round" stroke-linejoin="round"/>
<path d="M19.1572 29.648C19.5493 29.3568 20.0249 29.1995 20.5133 29.1995C21.7603 29.1995 22.7864 30.2257 22.7864 31.4726C22.7864 32.7195 21.7603 33.7457 20.5133 33.7457C19.4484 33.7457 18.5196 32.9978 18.293 31.9575" stroke="white" stroke-width="1.32354" stroke-linecap="round" stroke-linejoin="round"/>
<path d="M23.8591 35.5854V45.7593L20.5135 43.2336L17.168 45.7593V35.5854" stroke="white" stroke-width="1.32354" stroke-linecap="round" stroke-linejoin="round"/>
</g>
<defs>
<clipPath id="clip0_404_51">
<rect width="30" height="46.7647" fill="white"/>
</clipPath>
</defs>
</svg>
