<svg width="40" height="40" viewBox="0 0 40 40" fill="none" xmlns="http://www.w3.org/2000/svg">
<path d="M35.625 25H34.9983C35.4057 24.4599 35.6257 23.8015 35.625 23.125V16.875C35.6257 16.1985 35.4057 15.5402 34.9983 15H35C35.8285 14.9991 36.6228 14.6695 37.2087 14.0837C37.7945 13.4978 38.1241 12.7035 38.125 11.875V5.625C38.1241 4.79649 37.7945 4.00218 37.2087 3.41634C36.6228 2.83049 35.8285 2.50095 35 2.5H15.625C14.7965 2.50095 14.0022 2.83049 13.4163 3.41634C12.8305 4.00218 12.5009 4.79649 12.5 5.625V10H13.75V8.125H36.875V9.375H16.25V10.625H36.875V11.875C36.8744 12.301 36.729 12.7142 36.4626 13.0466C36.1962 13.3791 35.8247 13.6111 35.409 13.7045L36.184 12.1545L35.066 11.5955L33.9887 13.75H32.8863L33.684 12.1545L32.566 11.5955L31.4887 13.75H30.3863L31.184 12.1545L30.066 11.5955L28.9887 13.75H27.8863L28.684 12.1545L27.566 11.5955L26.4887 13.75H25V15H26.4887L27.566 17.1545L28.684 16.5955L27.8863 15H28.9887L30.066 17.1545L31.184 16.5955L30.3863 15H31.4887L32.566 17.1545L33.684 16.5955L32.909 15.0455C33.3247 15.1389 33.6962 15.3709 33.9626 15.7034C34.229 16.0358 34.3744 16.449 34.375 16.875V18.125H27.5V19.375H34.375V20.625H28.75V21.875H34.375V23.125C34.3744 23.551 34.229 23.9642 33.9626 24.2966C33.6962 24.6291 33.3247 24.8611 32.909 24.9545L33.684 23.4045L32.566 22.8455L31.4887 25H30.3863L31.184 23.4045L30.066 22.8455L28.9887 25H28.75V26.25H29.6137L30.691 28.4045L31.809 27.8455L31.0113 26.25H32.1137L33.191 28.4045L34.309 27.8455L33.5113 26.25H34.6137L35.691 28.4045L36.809 27.8455L36.034 26.2955C36.4497 26.3889 36.8212 26.6209 37.0876 26.9534C37.354 27.2858 37.4994 27.699 37.5 28.125V29.375H27.5V30.625H37.5V31.875H26.25V33.125H37.5V34.375C37.4994 34.801 37.354 35.2142 37.0876 35.5466C36.8212 35.8791 36.4497 36.1111 36.034 36.2045L36.809 34.6545L35.691 34.0955L34.6137 36.25H33.5113L34.309 34.6545L33.191 34.0955L32.1137 36.25H31.0113L31.809 34.6545L30.691 34.0955L29.6137 36.25H28.5113L29.309 34.6545L28.191 34.0955L27.1137 36.25H26.0113L26.809 34.6545L25.691 34.0955L24.6137 36.25H21.875V37.5H35.625C36.4535 37.4991 37.2478 37.1695 37.8337 36.5837C38.4195 35.9978 38.7491 35.2035 38.75 34.375V28.125C38.7491 27.2965 38.4195 26.5022 37.8337 25.9163C37.2478 25.3305 36.4535 25.0009 35.625 25ZM13.75 6.875V5.625C13.7498 5.13969 13.9385 4.67334 14.2761 4.32469L15.066 5.90454L16.184 5.34546L15.3937 3.76478C15.4704 3.75511 15.5477 3.75017 15.625 3.75H16.4887L17.566 5.90454L18.684 5.34546L17.8863 3.75H18.9887L20.066 5.90454L21.184 5.34546L20.3863 3.75H21.4887L22.566 5.90454L23.684 5.34546L22.8863 3.75H23.9887L25.066 5.90454L26.184 5.34546L25.3863 3.75H26.4887L27.566 5.90454L28.684 5.34546L27.8863 3.75H28.9887L30.066 5.90454L31.184 5.34546L30.3863 3.75H31.4887L32.566 5.90454L33.684 5.34546L32.8863 3.75H33.9887L35.066 5.90454L36.184 5.34546L35.409 3.79547C35.8247 3.88892 36.1962 4.12092 36.4626 4.45337C36.729 4.78583 36.8744 5.19898 36.875 5.625V6.875H13.75Z" fill="white"/>
<path d="M27.5 24.375C27.5 17.1378 21.6121 11.25 14.375 11.25C7.1378 11.25 1.24997 17.1378 1.24997 24.375C1.24997 31.6122 7.1378 37.5 14.375 37.5C21.6121 37.5 27.5 31.6122 27.5 24.375ZM22.33 31.4461L21.446 32.3299L22.3141 33.198C21.8539 33.6124 21.3622 33.9905 20.8435 34.3288L20.2288 33.264L19.1462 33.889L19.7622 34.9561C19.2103 35.238 18.6372 35.476 18.0479 35.6679L17.7286 34.4762L16.5212 34.7997L16.8406 35.9919C16.2344 36.1205 15.6189 36.2013 15 36.2336V35H13.75V36.2336C13.131 36.2013 12.5156 36.1205 11.9093 35.9919L12.2287 34.7997L11.0213 34.4762L10.702 35.6679C10.1128 35.476 9.53959 35.238 8.98774 34.9561L9.60378 33.889L8.52116 33.264L7.90646 34.3288C7.3877 33.9905 6.89602 33.6125 6.43586 33.198L7.30389 32.33L6.4201 31.4461L5.55199 32.3141C5.13754 31.854 4.75947 31.3623 4.42122 30.8435L5.48596 30.2288L4.86096 29.1462L3.79391 29.7622C3.51202 29.2104 3.27402 28.6372 3.08211 28.048L4.27372 27.7287L3.95024 26.5212L2.75811 26.8407C2.6295 26.2344 2.54867 25.6189 2.51639 25H3.74997V23.75H2.51639C2.54867 23.1311 2.6295 22.5156 2.75811 21.9093L3.95024 22.2288L4.27373 21.0213L3.08211 20.702C3.27402 20.1128 3.51202 19.5396 3.79392 18.9878L4.86096 19.6038L5.48596 18.5212L4.42122 17.9065C4.75946 17.3877 5.13751 16.8961 5.55195 16.4359L6.41995 17.3039L7.30389 16.4201L6.43582 15.552C6.896 15.1376 7.38769 14.7595 7.90646 14.4212L8.52116 15.486L9.60378 14.861L8.98774 13.7939C9.53959 13.512 10.1128 13.274 10.702 13.0821L11.0213 14.2738L12.2287 13.9503L11.9093 12.7581C12.5156 12.6295 13.131 12.5487 13.75 12.5164V13.75H15V12.5164C15.6189 12.5487 16.2344 12.6295 16.8406 12.7581L16.5212 13.9503L17.7286 14.2738L18.0479 13.0821C18.6372 13.274 19.2103 13.5121 19.7622 13.7939L19.1462 14.861L20.2288 15.486L20.8435 14.4213C21.3622 14.7595 21.8539 15.1375 22.3141 15.552L21.446 16.42L22.3298 17.3039L23.1979 16.4359C23.6124 16.896 23.9905 17.3877 24.3287 17.9065L23.264 18.5212L23.889 19.6038L24.956 18.9878C25.2379 19.5396 25.4759 20.1128 25.6678 20.702L24.4762 21.0213L24.7997 22.2288L25.9918 21.9093C26.1204 22.5156 26.2013 23.1311 26.2335 23.75H25V25H26.2335C26.2013 25.6189 26.1204 26.2344 25.9918 26.8407L24.7997 26.5212L24.4762 27.7287L25.6678 28.048C25.4759 28.6372 25.2379 29.2104 24.956 29.7622L23.889 29.1462L23.264 30.2288L24.3287 30.8435C23.9905 31.3623 23.6124 31.854 23.198 32.3141L22.33 31.4461Z" fill="white"/>
<path d="M21.25 24.375C21.25 23.0153 20.8468 21.686 20.0914 20.5555C19.336 19.4249 18.2622 18.5437 17.006 18.0233C15.7497 17.503 14.3674 17.3668 13.0338 17.6321C11.7002 17.8974 10.4752 18.5522 9.51367 19.5136C8.55219 20.4751 7.89741 21.7001 7.63213 23.0338C7.36686 24.3674 7.50301 25.7497 8.02336 27.006C8.54371 28.2622 9.4249 29.3359 10.5555 30.0914C11.6861 30.8468 13.0153 31.25 14.375 31.25C16.1978 31.2479 17.9453 30.523 19.2341 29.2341C20.523 27.9452 21.248 26.1977 21.25 24.375ZM17.3508 25.3421C18.169 24.9078 19.0701 24.6523 19.9945 24.5924C19.9558 25.631 19.6283 26.6382 19.0489 27.501C18.3363 26.9098 17.7575 26.1739 17.3508 25.3421ZM18.7912 20.8973C18.0093 21.392 17.131 21.7145 16.2147 21.8434C16.0548 20.9308 16.0904 19.9945 16.3192 19.0967C17.2931 19.4582 18.1485 20.0812 18.7912 20.8973ZM15.1055 18.799C14.7826 20.0723 14.7869 21.4065 15.1178 22.6777C15.1527 22.8115 15.2309 22.93 15.3403 23.0147C15.4497 23.0993 15.5841 23.1452 15.7224 23.1453C15.7348 23.1453 15.7474 23.1449 15.76 23.1442C17.0715 23.0669 18.342 22.6584 19.4528 21.9569C19.6634 22.3981 19.8151 22.8651 19.904 23.3458C18.5929 23.4323 17.3251 23.849 16.2182 24.557C16.0962 24.635 16.005 24.7529 15.9603 24.8907C15.9156 25.0285 15.9201 25.1775 15.9731 25.3123C16.4524 26.5342 17.2327 27.615 18.2417 28.4545C17.8874 28.7913 17.4909 29.0807 17.0621 29.3155C16.5746 28.0955 15.7868 27.0185 14.7718 26.1843C14.66 26.0924 14.5197 26.0421 14.3749 26.0422C14.2302 26.0422 14.0899 26.0925 13.9781 26.1845C12.9624 27.0179 12.1748 28.0953 11.6888 29.316C11.2601 29.0813 10.8636 28.792 10.5093 28.4554C11.5172 27.6148 12.2971 26.5338 12.777 25.3122C12.83 25.1774 12.8345 25.0284 12.7898 24.8907C12.7451 24.7529 12.6539 24.635 12.5318 24.557C11.4254 23.8483 10.1572 23.4318 8.84593 23.3466C8.93475 22.8659 9.08634 22.3989 9.29683 21.9577C10.4086 22.6574 11.6789 23.0654 12.9901 23.1442C13.0027 23.1449 13.0152 23.1453 13.0277 23.1453C13.166 23.1452 13.3004 23.0993 13.4098 23.0146C13.5192 22.93 13.5974 22.8115 13.6322 22.6776C13.964 21.4066 13.968 20.0721 13.6438 18.7991C14.1288 18.7337 14.6204 18.7336 15.1055 18.799ZM9.70142 27.5013C9.12184 26.6385 8.79429 25.6312 8.75556 24.5926C9.68005 24.6516 10.5813 24.9071 11.3993 25.342C10.9921 26.1735 10.4134 26.9094 9.70142 27.5013ZM12.4306 19.0968C12.6605 19.9944 12.6963 20.9308 12.5356 21.8433C11.6196 21.7129 10.7416 21.3906 9.9588 20.8974C10.6015 20.0813 11.4568 19.4583 12.4306 19.0968ZM12.8458 29.787C13.1874 28.9259 13.7087 28.1475 14.375 27.504C15.0405 28.1483 15.5617 28.9264 15.9043 29.787C14.9046 30.071 13.8455 30.071 12.8458 29.787Z" fill="white"/>
<path d="M14.375 25C14.7202 25 15 24.7202 15 24.375C15 24.0298 14.7202 23.75 14.375 23.75C14.0298 23.75 13.75 24.0298 13.75 24.375C13.75 24.7202 14.0298 25 14.375 25Z" fill="white"/>
<path d="M7.06448 27.9236L5.94022 28.47C6.70873 30.0531 7.9074 31.388 9.39907 32.3217C10.8907 33.2555 12.6152 33.7504 14.375 33.7499V32.4999C12.8497 32.5004 11.3551 32.0714 10.0622 31.2621C8.76939 30.4527 7.7305 29.2958 7.06448 27.9236Z" fill="white"/>
<path d="M21.6855 20.8263L22.8098 20.2799C22.0412 18.6968 20.8426 17.362 19.3509 16.4282C17.8592 15.4945 16.1348 14.9995 14.375 15V16.25C15.9003 16.2496 17.3949 16.6785 18.6877 17.4879C19.9806 18.2972 21.0195 19.4542 21.6855 20.8263Z" fill="white"/>
<path d="M7.52187 20.0083C8.33055 18.7409 9.47425 17.722 10.8263 17.0645L10.2799 15.9402C8.69675 16.7087 7.36193 17.9074 6.42819 19.399C5.49444 20.8907 4.99949 22.6151 4.99997 24.3749H6.24997C6.24802 22.8278 6.68941 21.3124 7.52187 20.0083Z" fill="white"/>
<path d="M22.5 24.375C22.5004 25.9003 22.0714 27.3949 21.2621 28.6877C20.4528 29.9806 19.2958 31.0195 17.9236 31.6855L18.4701 32.8098C20.0532 32.0412 21.388 30.8426 22.3218 29.3509C23.2555 27.8592 23.7505 26.1348 23.75 24.375H22.5Z" fill="white"/>
</svg>
