<svg width="34" height="26" viewBox="0 0 34 26" fill="none" xmlns="http://www.w3.org/2000/svg">
<path d="M3.98198 13.1677C1.32733 13.1677 0 11.714 0 8.80645V4.36129C0 2.85161 0.319069 1.74731 0.957207 1.04839C1.62087 0.349462 2.62913 0 3.98198 0H10.5676C11.9204 0 12.9159 0.349462 13.5541 1.04839C14.2177 1.74731 14.5495 2.85161 14.5495 4.36129V8.80645C14.5495 11.714 13.2222 13.1677 10.5676 13.1677H3.98198ZM4.55631 26C4.25 26 4.05856 25.9022 3.98198 25.7065C3.93093 25.5108 4.00751 25.3011 4.21171 25.0774L26.9932 0.377419C27.274 0.125806 27.5548 0 27.8356 0H29.4437C29.75 0 29.9287 0.097849 29.9797 0.293547C30.0563 0.489247 29.9925 0.698924 29.7883 0.922579L7.00676 25.6226C6.72598 25.8742 6.4452 26 6.16441 26H4.55631ZM4.86261 10.4H9.68694C10.4017 10.4 10.8994 10.2323 11.1802 9.89677C11.4865 9.56129 11.6396 9.00215 11.6396 8.21935V4.94839C11.6396 4.16559 11.4865 3.60645 11.1802 3.27097C10.8994 2.93548 10.4017 2.76774 9.68694 2.76774H4.86261C4.1479 2.76774 3.63739 2.93548 3.33108 3.27097C3.0503 3.60645 2.90991 4.16559 2.90991 4.94839V8.21935C2.90991 9.00215 3.0503 9.56129 3.33108 9.89677C3.63739 10.2323 4.1479 10.4 4.86261 10.4ZM23.4324 26C20.7778 26 19.4504 24.5462 19.4504 21.6387V17.1935C19.4504 15.6839 19.7695 14.5796 20.4077 13.8806C21.0713 13.1817 22.0796 12.8323 23.4324 12.8323H30.018C31.3709 12.8323 32.3664 13.1817 33.0045 13.8806C33.6682 14.5796 34 15.6839 34 17.1935V21.6387C34 24.5462 32.6727 26 30.018 26H23.4324ZM24.3131 23.2323H29.1374C29.8521 23.2323 30.3498 23.0645 30.6306 22.729C30.9369 22.3935 31.0901 21.8344 31.0901 21.0516V17.7806C31.0901 16.9979 30.9369 16.4387 30.6306 16.1032C30.3498 15.7677 29.8521 15.6 29.1374 15.6H24.3131C23.5983 15.6 23.0878 15.7677 22.7815 16.1032C22.5007 16.4387 22.3604 16.9979 22.3604 17.7806V21.0516C22.3604 21.8344 22.5007 22.3935 22.7815 22.729C23.0878 23.0645 23.5983 23.2323 24.3131 23.2323Z" fill="white"/>
</svg>
