<svg width="37" height="37" viewBox="0 0 37 37" fill="none" xmlns="http://www.w3.org/2000/svg">
<g clip-path="url(#clip0_404_28)">
<path d="M3.25293 7.07362C3.647 7.40155 4.18876 7.48795 4.66528 7.29886C5.1418 7.10977 5.47692 6.67541 5.53891 6.1665H22.2C23.2217 6.1665 24.05 5.33823 24.05 4.3165V3.08317C24.05 2.06144 23.2217 1.23317 22.2 1.23317H5.53891C5.47697 0.724382 5.14203 0.290081 4.66569 0.100881C4.18935 -0.0883183 3.64771 -0.00218941 3.25355 0.325432L0.498281 2.62005C0.180826 2.89035 -0.00161372 3.28664 -0.000544644 3.70358C0.000524434 4.12053 0.184994 4.51588 0.503831 4.78455L3.25293 7.07362ZM1.29501 3.56293L4.0435 1.27263C4.07211 1.24776 4.10858 1.23378 4.14648 1.23317C4.17181 1.23375 4.19676 1.23941 4.21986 1.24982C4.2804 1.27516 4.31895 1.33531 4.31668 1.4009V1.84983C4.31668 2.19041 4.59277 2.4665 4.93335 2.4665H22.2C22.5406 2.4665 22.8167 2.74259 22.8167 3.08317V4.3165C22.8167 4.65707 22.5406 4.93317 22.2 4.93317H4.93335C4.59277 4.93317 4.31668 5.20926 4.31668 5.54983V5.99877C4.31915 6.06405 4.28115 6.12412 4.2211 6.14985C4.16272 6.17813 4.09311 6.16892 4.04411 6.12642L1.29933 3.84105C1.25761 3.80599 1.23347 3.75432 1.23335 3.69983C1.23299 3.6474 1.25551 3.59741 1.29501 3.56293Z" fill="white"/>
<path d="M33.7471 6.49295C33.353 6.16501 32.8112 6.07861 32.3347 6.26771C31.8582 6.4568 31.5231 6.89116 31.4611 7.40006H14.8C13.7783 7.40006 12.95 8.22834 12.95 9.25006V10.4834C12.95 11.5051 13.7783 12.3334 14.8 12.3334H31.4611C31.5211 12.8433 31.8559 13.2793 32.3331 13.4688C32.8102 13.6584 33.3529 13.5709 33.7464 13.2411L36.5017 10.9465C36.8192 10.6762 37.0016 10.2799 37.0005 9.86298C36.9995 9.44604 36.815 9.05069 36.4962 8.78201L33.7471 6.49295ZM35.705 10.0036L32.9553 12.2939C32.9057 12.3352 32.8367 12.3439 32.7784 12.3164C32.7201 12.2889 32.683 12.2301 32.6833 12.1657V11.7167C32.6833 11.3762 32.4072 11.1001 32.0666 11.1001H14.8C14.4594 11.1001 14.1833 10.824 14.1833 10.4834V9.25006C14.1833 8.90949 14.4594 8.6334 14.8 8.6334H32.0666C32.4072 8.6334 32.6833 8.35731 32.6833 8.01673V7.5678C32.6808 7.50251 32.7188 7.44244 32.7789 7.41671C32.8372 7.38775 32.9072 7.39702 32.9559 7.44015L35.6994 9.72551C35.7416 9.76033 35.7662 9.81204 35.7666 9.86673C35.767 9.91917 35.7445 9.96915 35.705 10.0036Z" fill="white"/>
<path d="M35.7667 16.6501L32.5508 16.655C31.7896 16.6528 31.1182 17.1532 30.903 17.8834H28.9464C28.6611 17.8845 28.3797 17.8181 28.125 17.6898L24.8091 16.0285C23.1635 15.2145 21.2323 15.2145 19.5866 16.0285L19.4244 16.1099L19.2591 16.026C17.6133 15.2127 15.6824 15.2127 14.0366 16.026L10.722 17.6867C10.4686 17.8159 10.1882 17.8833 9.9037 17.8834H6.09701C5.88196 17.1537 5.21128 16.6533 4.45051 16.655L1.23336 16.6501C0.552213 16.6501 3.05176e-05 17.2023 3.05176e-05 17.8834V27.7501C3.05176e-05 28.4312 0.552213 28.9834 1.23336 28.9834L4.32841 28.9884L6.17841 29.7592C6.14989 30.5671 6.55968 31.3275 7.25018 31.7479C7.5895 31.9513 7.97756 32.0589 8.37313 32.0594C8.56041 32.059 8.74689 32.035 8.92813 31.9878C8.94416 31.9835 8.95896 31.9755 8.975 31.9706C9.10781 32.5626 9.4764 33.0749 9.99558 33.3889C10.335 33.5912 10.7228 33.6977 11.1179 33.6972C11.3052 33.6969 11.4917 33.6728 11.6729 33.6257C11.6889 33.6214 11.7031 33.6134 11.7192 33.609C11.8531 34.2018 12.2233 34.7141 12.7441 35.0274C13.2467 35.33 13.8503 35.4166 14.4177 35.2673C14.4319 35.2636 14.4448 35.2562 14.459 35.2525C14.5892 35.836 14.9524 36.3408 15.4642 36.6498L15.4728 36.6548L15.4901 36.6659C15.8282 36.8693 16.2153 36.977 16.6099 36.9773C16.7972 36.9773 16.9837 36.9535 17.1649 36.9064C17.5712 36.8011 17.9383 36.5805 18.2219 36.2712L18.5814 36.5505C18.9594 36.8425 19.4235 37.0008 19.9011 37.0007C20.0003 37.0006 20.0994 36.9938 20.1977 36.9804C20.7557 36.9069 21.2625 36.617 21.6086 36.1731C21.6185 36.162 21.6284 36.1497 21.637 36.138C21.9934 35.6664 22.1445 35.071 22.0563 34.4866L22.0835 34.4835C22.656 34.4109 23.1748 34.11 23.5222 33.6491C23.8157 33.2685 23.9753 32.8015 23.976 32.3208C24.116 32.3292 24.2564 32.324 24.3954 32.3054C24.9667 32.2324 25.4844 31.9318 25.831 31.4717C26.1277 31.0894 26.2887 30.6193 26.2885 30.1354C26.2889 29.8889 26.2485 29.644 26.1689 29.4108C26.4723 29.3324 26.7539 29.1863 26.9928 28.9834L32.5428 28.9884H32.5465L35.7667 28.9834C36.4478 28.9834 37 28.4312 37 27.7501V17.8834C37 17.2023 36.4478 16.6501 35.7667 16.6501ZM24.2615 17.1336L27.57 18.7912C27.997 19.0057 28.4684 19.1172 28.9464 19.1168H30.8987L31.8589 27.7538L27.7019 27.7501C27.7458 27.5508 27.762 27.3464 27.75 27.1427C27.6796 26.4087 27.2979 25.7401 26.7017 25.3062L20.4734 20.9501C19.6859 20.3861 18.5963 20.5275 17.9789 21.2739L15.1151 24.6988C14.5837 25.3297 13.646 25.4214 13.0024 24.9054C12.8563 24.7892 12.7715 24.6124 12.7724 24.4256C12.7724 24.2976 12.8132 24.173 12.889 24.0698L15.7324 20.0066C16.2035 19.334 16.8346 18.7893 17.5689 18.4218L20.136 17.1354C21.4358 16.4927 22.9613 16.492 24.2615 17.1336ZM1.23336 17.8834L4.45051 17.8884C4.58981 17.8884 4.7225 17.9477 4.81537 18.0515C4.90825 18.1554 4.9525 18.2938 4.93706 18.4323L3.90045 27.7544L1.23336 27.7501V17.8834ZM7.8835 30.6897C7.41448 30.4028 7.25987 29.7942 7.53508 29.3183L7.80765 28.8527C7.93701 28.6267 8.15197 28.4625 8.40396 28.397C8.48339 28.3769 8.565 28.3667 8.64693 28.3668C8.82077 28.3672 8.99124 28.4148 9.14026 28.5043C9.44238 28.6863 9.62524 29.0149 9.62065 29.3676C9.6214 29.5449 9.57546 29.7193 9.48745 29.8733L9.21488 30.3382C9.0855 30.5644 8.87061 30.7291 8.61856 30.7952C8.36933 30.8603 8.10439 30.8223 7.8835 30.6897ZM10.6289 32.3307C10.1601 32.0436 10.0058 31.435 10.2811 30.9592L10.5543 30.4924C10.6838 30.2671 10.8985 30.1033 11.15 30.0379C11.2293 30.0174 11.311 30.0068 11.3929 30.0065C11.5668 30.0069 11.7373 30.0544 11.8863 30.144C12.3455 30.4283 12.5014 31.0226 12.2409 31.4957V31.4994L11.9615 31.9804L11.9578 31.9878C11.8282 32.2101 11.6151 32.3713 11.366 32.4357C11.1169 32.5001 10.8524 32.4623 10.6314 32.3307H10.6289ZM13.3817 33.9686C12.9128 33.6868 12.7545 33.0823 13.0253 32.607L13.0302 32.6002L13.3028 32.1334C13.3071 32.1266 13.3102 32.1186 13.3139 32.1112C13.4437 31.8923 13.6553 31.7341 13.902 31.6715C14.1487 31.6089 14.4101 31.647 14.6286 31.7775C15.0997 32.0607 15.2571 32.6691 14.9826 33.1453L14.7026 33.6263C14.5739 33.8481 14.3618 34.0091 14.1137 34.0734C13.8655 34.1377 13.6019 34.1 13.3817 33.9686ZM16.8591 35.7119C16.611 35.7776 16.3468 35.7398 16.1271 35.607L16.1185 35.6015C15.6528 35.3215 15.4968 34.7203 15.7676 34.2491L15.9409 33.9507L16.0512 33.7607C16.2236 33.4656 16.5395 33.2839 16.8813 33.2834C17.0576 33.2841 17.2304 33.3325 17.3814 33.4234C17.8486 33.7045 18.0044 34.308 17.7317 34.7801L17.4468 35.2697C17.3173 35.4906 17.1044 35.65 16.856 35.7119H16.8591ZM24.9534 28.0208C24.6849 27.8112 24.2973 27.8589 24.0876 28.1275C23.878 28.396 23.9258 28.7837 24.1943 28.9933L24.6827 29.3756C24.8846 29.5309 25.016 29.7605 25.0477 30.0132C25.0794 30.2659 25.0089 30.5208 24.8517 30.7212C24.7026 30.9203 24.4796 31.0509 24.233 31.0836C23.9865 31.1163 23.7371 31.0484 23.5413 30.8951L23.1361 30.5794C23.1309 30.5747 23.1253 30.5703 23.1195 30.5664C22.8502 30.3624 22.4669 30.413 22.2598 30.6799C22.0527 30.9468 22.0989 31.3306 22.3634 31.5407L22.3739 31.5488C22.7909 31.8778 22.8654 32.4811 22.541 32.9017C22.3915 33.0988 22.1692 33.2277 21.9239 33.2597C21.6786 33.2916 21.4307 33.224 21.2356 33.0719C21.0492 32.9277 20.7969 32.9024 20.5856 33.0066C20.3929 33.1006 20.2624 33.2876 20.2406 33.5009C20.2187 33.7142 20.3086 33.9237 20.4783 34.0549C20.8792 34.3757 20.9628 34.9525 20.6695 35.3739L20.6473 35.4017C20.4986 35.5997 20.2762 35.7292 20.0306 35.7606C19.7829 35.7944 19.5321 35.7278 19.3338 35.5756L18.8756 35.2198C19.3626 34.1841 18.9873 32.9479 18.0067 32.3578C17.5045 32.0546 16.9009 31.9679 16.3337 32.1173C16.317 32.1216 16.3028 32.1303 16.2862 32.1346C16.1524 31.5418 15.7821 31.0294 15.2613 30.7163C14.7588 30.4138 14.1555 30.3273 13.5883 30.4764C13.5722 30.4807 13.5581 30.4887 13.5426 30.493C13.4124 29.9107 13.0515 29.4062 12.5425 29.0949C12.0335 28.7836 11.4199 28.6922 10.8423 28.8416C10.8262 28.8459 10.812 28.8545 10.796 28.8589C10.6629 28.2669 10.2944 27.7548 9.77543 27.4405C9.27014 27.1388 8.66494 27.0523 8.09535 27.2004C7.52576 27.3485 7.03938 27.7189 6.74513 28.2286L6.54471 28.5715L5.11836 27.9807L6.10133 19.1168H9.9037C10.3806 19.1174 10.8511 19.0065 11.2776 18.793L14.5848 17.1354C15.6328 16.6204 16.836 16.5176 17.9561 16.8474L17.0157 17.3192C16.0975 17.7786 15.3086 18.4601 14.7205 19.3018L11.8807 23.36C11.3119 24.157 11.4658 25.2596 12.231 25.8705C13.3999 26.8042 15.1003 26.6351 16.0623 25.4894L18.9237 22.0675C19.1309 21.8156 19.4984 21.7685 19.7623 21.9602L25.9709 26.2997C26.2772 26.5215 26.4754 26.8624 26.5167 27.2383C26.5431 27.5093 26.4522 27.7787 26.2669 27.9783C25.9024 28.3214 25.3395 28.3396 24.9534 28.0208ZM35.7667 27.7501L33.1002 27.7544L32.0667 18.4323C32.0512 18.2936 32.0957 18.1549 32.1888 18.0511C32.2819 17.9472 32.415 17.888 32.5545 17.8884L35.7667 17.8834V27.7501Z" fill="white"/>
</g>
<defs>
<clipPath id="clip0_404_28">
<rect width="37" height="37" fill="white"/>
</clipPath>
</defs>
</svg>
