<svg width="39" height="39" viewBox="0 0 39 39" fill="none" xmlns="http://www.w3.org/2000/svg">
<g clip-path="url(#clip0_404_61)">
<path d="M16.9228 19.6697C21.1595 19.6697 24.594 16.2351 24.594 11.9984C24.594 7.7617 21.1595 4.32715 16.9228 4.32715C12.686 4.32715 9.25153 7.7617 9.25153 11.9984C9.25153 16.2351 12.686 19.6697 16.9228 19.6697Z" stroke="white" stroke-width="1.17001" stroke-linecap="round" stroke-linejoin="round"/>
<path d="M38.1133 26.8666C38.1133 26.8666 32.2884 23.2833 29.6995 22.8953C28.4282 22.7045 25.0579 22.7184 21.6089 23.1129C18.0348 23.5212 14.3775 24.0379 12.8914 24.2203C9.72012 24.6083 10.2275 28.648 13.1395 28.6063C15.2145 28.5767 23.4857 28.5212 23.4857 28.5212" stroke="white" stroke-width="1.17001" stroke-linecap="round" stroke-linejoin="round"/>
<path d="M37.3361 36.5119C34.7149 35.2619 33.8408 35.0674 30.5399 35.7165C26.8696 36.4378 18.8382 37.9156 16.9225 37.9803C15.0058 38.0452 12.3549 36.3184 9.95769 34.1619C8.01608 32.4147 5.87997 30.7962 4.13277 29.1138C2.38557 27.4314 0.443922 25.6833 0.831883 24.7129C1.27539 23.6027 3.03279 23.2889 5.23276 24.5185C7.43365 25.7481 8.71422 26.6888 9.63364 27.4768C10.5401 28.2536 13.1938 29.624 15.0058 31.3795C16.6882 30.2712 18.5984 28.749 20.7335 28.5555" stroke="white" stroke-width="1.17001" stroke-linecap="round" stroke-linejoin="round"/>
<path d="M2.58034 23.7413C2.58034 23.7413 2.13313 21.1729 5.23395 22.059C7.49958 22.7062 9.63469 24.583 9.63469 24.583" stroke="white" stroke-width="1.17001" stroke-linecap="round" stroke-linejoin="round"/>
<path d="M10.3635 15.9822C7.26357 14.997 5.01727 12.0961 5.01727 8.66929C5.01634 4.4323 8.45152 0.998047 12.6885 0.998047C15.4487 0.998047 17.8681 2.45545 19.219 4.64248" stroke="white" stroke-width="1.17001" stroke-linecap="round" stroke-linejoin="round"/>
<path d="M17.0034 7.99361C17.5923 7.99361 18.1043 8.06767 18.5385 8.21489C18.9728 8.36211 19.3089 8.5658 19.5478 8.82413C19.7867 9.08336 19.9616 9.36575 20.0737 9.67224C20.1848 9.97869 20.2413 10.3157 20.2413 10.6815C20.2413 11.4379 19.9709 12.0786 19.4293 12.6045C18.896 13.1304 18.1469 13.3925 17.184 13.3925C16.6979 13.3925 16.3359 13.3804 16.097 13.3563V15.7451C16.097 15.9442 16.0257 16.1155 15.8822 16.259C15.7387 16.4025 15.5674 16.4738 15.3683 16.4738C15.1692 16.4738 14.9859 16.4044 14.8424 16.2646C14.6989 16.1248 14.6276 15.9525 14.6276 15.7451V8.74543C14.6276 8.54634 14.697 8.37506 14.8369 8.23154C14.9757 8.08803 15.1489 8.0121 15.3563 8.00469C15.6905 8.00469 15.9896 8.00102 16.2525 7.99268H17.0053L17.0034 7.99361ZM16.0961 9.39074V11.9582C16.5183 11.9981 16.8646 12.0184 17.1349 12.0184C17.6043 12.0184 17.9812 11.9027 18.2636 11.6721C18.546 11.4416 18.6876 11.1064 18.6876 10.6685C18.6876 9.80094 18.1737 9.36668 17.1469 9.36668L16.0961 9.39074Z" fill="white"/>
<path d="M17.7163 13.8149H15.8542C15.539 13.8149 15.2834 14.0705 15.2834 14.3857C15.2834 14.7009 15.539 14.9565 15.8542 14.9565H17.7163C18.0315 14.9565 18.287 14.7009 18.287 14.3857C18.287 14.0705 18.0315 13.8149 17.7163 13.8149Z" fill="white"/>
</g>
<defs>
<clipPath id="clip0_404_61">
<rect width="39" height="38.22" fill="white" transform="translate(0 0.390137)"/>
</clipPath>
</defs>
</svg>
