<svg width="51" height="79" viewBox="0 0 51 79" fill="none" xmlns="http://www.w3.org/2000/svg">
<g clip-path="url(#clip0_404_971)">
<path d="M35.6217 43.7376L36.9144 42.747C37.6342 42.1959 38.6855 42.5371 38.9425 43.4061L39.4054 44.9674C39.5721 45.5284 40.0939 45.9089 40.6803 45.8932L42.3083 45.852C43.2165 45.8284 43.8637 46.7229 43.5616 47.5781L43.0183 49.1139C42.8242 49.665 43.0222 50.2809 43.5048 50.6124L44.8464 51.5363C45.5938 52.0502 45.5938 53.1544 44.8464 53.6703L43.5048 54.5941C43.0222 54.9256 42.8222 55.5395 43.0183 56.0927L43.5616 57.6284C43.8637 58.4837 43.2145 59.3781 42.3083 59.3545L40.6803 59.3133C40.0958 59.2976 39.5721 59.6782 39.4054 60.2391L38.9425 61.8005C38.6836 62.6713 37.6342 63.0126 36.9144 62.4595L35.6217 61.469C35.1569 61.112 34.5116 61.112 34.0467 61.469L32.7541 62.4595C32.0343 63.0106 30.983 62.6694 30.726 61.8005L30.2631 60.2391C30.0964 59.6782 29.5746 59.2976 28.9882 59.3133L27.3602 59.3545C26.452 59.3781 25.8047 58.4837 26.1068 57.6284L26.6502 56.0927C26.8443 55.5415 26.6462 54.9256 26.1637 54.5941L24.8221 53.6703C24.0748 53.1564 24.0748 52.0521 24.8221 51.5363L26.1637 50.6124C26.6462 50.2809 26.8463 49.667 26.6502 49.1139L26.1068 47.5781C25.8047 46.7229 26.454 45.8284 27.3602 45.852L28.9882 45.8932C29.5726 45.9089 30.0964 45.5284 30.2631 44.9674L30.726 43.4061C30.9849 42.5352 32.0343 42.1939 32.7541 42.747L34.0467 43.7376C34.5116 44.0945 35.1569 44.0945 35.6217 43.7376Z" stroke="#1F1F1F" stroke-width="2.21073" stroke-linecap="round" stroke-linejoin="round"/>
<path d="M29.247 65.8592H1.8429V1.73193H49.1797V65.8592H40.4236" stroke="#1F1F1F" stroke-width="2.21073" stroke-linecap="round" stroke-linejoin="round"/>
<path d="M12.1802 13.1221H40.5936" stroke="#1F1F1F" stroke-width="2.21073" stroke-linecap="round" stroke-linejoin="round"/>
<path d="M12.1802 23.4946H40.5936" stroke="#1F1F1F" stroke-width="2.21073" stroke-linecap="round" stroke-linejoin="round"/>
<path d="M12.1803 33.8672H40.5937" stroke="#1F1F1F" stroke-width="2.21073" stroke-linecap="round" stroke-linejoin="round"/>
<path d="M12.1803 44.2397H19.6465" stroke="#1F1F1F" stroke-width="2.21073" stroke-linecap="round" stroke-linejoin="round"/>
<path d="M32.5702 49.5221C33.2252 49.0358 34.0194 48.7729 34.8353 48.7729C36.9181 48.7729 38.6322 50.487 38.6322 52.5698C38.6322 54.6526 36.9181 56.3667 34.8353 56.3667C33.0565 56.3667 31.5052 55.1174 31.1267 53.3798" stroke="#1F1F1F" stroke-width="2.21073" stroke-linecap="round" stroke-linejoin="round"/>
<path d="M40.4237 59.4395V76.4331L34.8356 72.2143L29.2474 76.4331V59.4395" stroke="#1F1F1F" stroke-width="2.21073" stroke-linecap="round" stroke-linejoin="round"/>
</g>
<defs>
<clipPath id="clip0_404_971">
<rect width="50.1096" height="78.112" fill="white" transform="translate(0.571533)"/>
</clipPath>
</defs>
</svg>
