<svg width="80" height="79" viewBox="0 0 80 79" fill="none" xmlns="http://www.w3.org/2000/svg">
<g clip-path="url(#clip0_404_993)">
<path d="M67.8962 38.7969V76.7278H12.4383V38.7969" stroke="#1F1F1F" stroke-width="2.23179" stroke-linecap="round" stroke-linejoin="round"/>
<path d="M13.003 25.4932H67.332C68.8691 25.4932 70.1189 26.7408 70.1189 28.2801V38.5901H10.2162V28.2801C10.2162 26.7429 11.4638 25.4932 13.003 25.4932Z" stroke="#1F1F1F" stroke-width="2.23179" stroke-linecap="round" stroke-linejoin="round"/>
<path d="M39.0106 25.3367C32.0166 25.1847 24.8038 26.0011 18.5263 22.0709C12.8216 18.5011 13.7235 12.4839 19.9635 10.4344C26.1347 8.40787 31.7229 13.1524 34.8554 18.0782C36.0405 19.9423 36.9299 21.9626 38.0129 23.8767" stroke="#1F1F1F" stroke-width="2.23179" stroke-linecap="round" stroke-linejoin="round"/>
<path d="M41.323 25.3367C48.317 25.1847 55.5297 26.0011 61.8072 22.0709C67.512 18.5011 66.6101 12.4839 60.3701 10.4344C54.1988 8.40787 48.6107 13.1524 45.4782 18.0782C44.2931 19.9423 43.4037 21.9626 42.3206 23.8767" stroke="#1F1F1F" stroke-width="2.23179" stroke-linecap="round" stroke-linejoin="round"/>
<path d="M41.0395 25.3367C43.6076 21.6044 44.6344 16.4849 44.8593 12.3859C44.9864 10.049 44.9239 1.60547 40.0314 1.60547C35.1389 1.60547 35.0744 10.049 35.2035 12.3859C35.4285 16.4849 36.4532 21.6044 39.0234 25.3367" stroke="#1F1F1F" stroke-width="2.23179" stroke-linecap="round" stroke-linejoin="round"/>
<path d="M46.0493 38.5876V25.4932" stroke="#1F1F1F" stroke-width="2.23179" stroke-linecap="round" stroke-linejoin="round"/>
<path d="M34.2855 25.4932V38.5876" stroke="#1F1F1F" stroke-width="2.23179" stroke-linecap="round" stroke-linejoin="round"/>
<path d="M44.5055 65.3345V76.7275" stroke="#1F1F1F" stroke-width="2.23179" stroke-linecap="round" stroke-linejoin="round"/>
<path d="M44.5055 38.7969V73.9241" stroke="#1F1F1F" stroke-width="2.23179" stroke-linecap="round" stroke-linejoin="round"/>
<path d="M35.8283 72.9078V38.7969" stroke="#1F1F1F" stroke-width="2.23179" stroke-linecap="round" stroke-linejoin="round"/>
<path d="M35.8283 76.7275V65.3345" stroke="#1F1F1F" stroke-width="2.23179" stroke-linecap="round" stroke-linejoin="round"/>
</g>
<defs>
<clipPath id="clip0_404_993">
<rect width="62.4896" height="78.112" fill="white" transform="translate(8.75565)"/>
</clipPath>
</defs>
</svg>
