<svg width="79" height="79" viewBox="0 0 79 79" fill="none" xmlns="http://www.w3.org/2000/svg">
<g clip-path="url(#clip0_404_1008)">
<path d="M34.7141 59.8545H8.31197C6.93776 59.8545 5.82471 60.969 5.82471 62.345V66.6765C5.82471 68.0525 6.93776 69.167 8.31197 69.167H41.8712" stroke="black" stroke-width="1.56225" stroke-linecap="round" stroke-linejoin="round"/>
<path d="M33.082 50.5464H8.31189C6.93772 50.5464 5.82471 51.6609 5.82471 53.0368V57.6295C5.82471 58.8604 6.82165 59.8585 8.05071 59.8585" stroke="black" stroke-width="1.56225" stroke-linecap="round" stroke-linejoin="round"/>
<path d="M35.593 41.2231H5.96138C4.58716 41.2231 3.47412 42.3377 3.47412 43.7137V48.0452C3.47412 49.4212 4.58716 50.5357 5.96138 50.5357H8.05065" stroke="black" stroke-width="1.56225" stroke-linecap="round" stroke-linejoin="round"/>
<path d="M44.8681 31.9023H8.31172C6.93751 31.9023 5.82446 33.0168 5.82446 34.393V38.9859C5.82446 40.2166 6.82144 41.2149 8.05053 41.2149" stroke="black" stroke-width="1.56225" stroke-linecap="round" stroke-linejoin="round"/>
<path d="M46.7234 31.0183C47.0114 30.6426 47.1814 30.1736 47.1814 29.6629V25.07C47.1814 23.6941 46.0683 22.5796 44.6942 22.5796H5.96136C4.58716 22.5796 3.47412 23.6941 3.47412 25.07V29.4014C3.47412 30.7774 4.58716 31.8919 5.96136 31.8919H7.67341" stroke="black" stroke-width="1.56225" stroke-linecap="round" stroke-linejoin="round"/>
<path d="M3.61055 22.5689H42.3453C43.719 22.5689 44.8327 21.4538 44.8327 20.0784V15.7469C44.8327 14.3714 43.719 13.2563 42.3453 13.2563H3.61055C2.23687 13.2563 1.12329 14.3714 1.12329 15.7469V20.0784C1.12329 21.4538 2.23687 22.5689 3.61055 22.5689Z" stroke="black" stroke-width="1.56225" stroke-linecap="round" stroke-linejoin="round"/>
<path d="M8.30949 13.248H47.0443C48.418 13.248 49.5316 12.133 49.5316 10.7575V6.42608C49.5316 5.0506 48.418 3.93555 47.0443 3.93555H8.30949C6.93585 3.93555 5.82227 5.0506 5.82227 6.42608V10.7575C5.82227 12.133 6.93585 13.248 8.30949 13.248Z" stroke="black" stroke-width="1.56225" stroke-linecap="round" stroke-linejoin="round"/>
<path d="M70.8616 67.1553C79.5041 58.5014 79.5041 44.4708 70.8616 35.8171C62.2191 27.1632 48.2071 27.1632 39.5646 35.8171C30.9221 44.4709 30.9221 58.5014 39.5646 67.1553C48.2071 75.8092 62.2191 75.8092 70.8616 67.1553Z" stroke="black" stroke-width="1.56225" stroke-linecap="round" stroke-linejoin="round"/>
<path d="M38.5137 54.927C38.2857 53.8168 38.1675 52.665 38.1675 51.4882C38.1675 46.775 40.0743 42.5081 43.1606 39.4199" stroke="black" stroke-width="1.56225" stroke-linecap="round" stroke-linejoin="round"/>
<path d="M47.9901 36.0224C50.1831 34.9929 52.631 34.418 55.2115 34.418C64.6257 34.418 72.2576 42.0597 72.2576 51.4865C72.2576 60.9132 64.6257 68.555 55.2115 68.555C48.6803 68.555 43.0052 64.8753 40.1448 59.4749" stroke="black" stroke-width="1.56225" stroke-linecap="round" stroke-linejoin="round"/>
<path d="M55.2897 42.5089C56.5349 42.5089 57.6177 42.6657 58.5359 42.9774C59.4542 43.2892 60.165 43.7203 60.6702 44.2674C61.1752 44.8164 61.5453 45.4144 61.7822 46.0633C62.0171 46.7121 62.1366 47.4259 62.1366 48.2003C62.1366 49.802 61.5648 51.1587 60.4194 52.2723C59.2917 53.3858 57.7078 53.9407 55.6715 53.9407C54.6435 53.9407 53.8779 53.9151 53.3727 53.8641V58.9224C53.3727 59.3438 53.222 59.7066 52.9186 60.0104C52.6152 60.3143 52.2528 60.4653 51.8319 60.4653C51.4111 60.4653 51.0233 60.3182 50.7198 60.0221C50.4163 59.7261 50.2655 59.3615 50.2655 58.9224V44.1007C50.2655 43.6793 50.4123 43.3165 50.7081 43.0127C51.0018 42.7088 51.3678 42.5481 51.8065 42.5323C52.5133 42.5323 53.1457 42.5245 53.7017 42.5068H55.2936L55.2897 42.5089ZM53.3708 45.4673V50.9038C54.2636 50.988 54.996 51.0313 55.5677 51.0313C56.5604 51.0313 57.3572 50.7861 57.9543 50.298C58.5517 49.8098 58.8512 49.1001 58.8512 48.1728C58.8512 46.3358 57.7645 45.4163 55.5931 45.4163L53.3708 45.4673Z" fill="black"/>
</g>
<defs>
<clipPath id="clip0_404_1008">
<rect width="78.112" height="71.8631" fill="white" transform="translate(0.166565 3.12451)"/>
</clipPath>
</defs>
</svg>
