<svg width="64" height="64" viewBox="0 0 64 64" fill="none" xmlns="http://www.w3.org/2000/svg">
<g clip-path="url(#clip0_404_1037)">
<path d="M5.66314 12.0907C6.33671 12.6513 7.26272 12.7989 8.07722 12.4757C8.89172 12.1525 9.46452 11.4101 9.57049 10.5402H38.0487C39.7951 10.5402 41.2108 9.1245 41.2108 7.3781V5.27001C41.2108 3.52362 39.7951 2.10788 38.0487 2.10788H9.57049C9.46461 1.23824 8.89212 0.495904 8.07792 0.172512C7.26373 -0.15088 6.33792 -0.0036627 5.6642 0.556327L0.954727 4.47843C0.412115 4.94045 0.100277 5.61781 0.102105 6.33047C0.103932 7.04313 0.419239 7.71889 0.964214 8.17812L5.66314 12.0907ZM2.31655 6.09006L7.01443 2.17534C7.06333 2.13282 7.12567 2.10894 7.19045 2.10788C7.23375 2.10888 7.2764 2.11856 7.31589 2.13634C7.41936 2.17965 7.48525 2.28247 7.48137 2.39458V3.16193C7.48137 3.74406 7.95328 4.21597 8.53542 4.21597H38.0487C38.6308 4.21597 39.1027 4.68788 39.1027 5.27001V7.3781C39.1027 7.96024 38.6308 8.43215 38.0487 8.43215H8.53542C7.95328 8.43215 7.48137 8.90406 7.48137 9.48619V10.2535C7.4856 10.3651 7.42064 10.4678 7.31799 10.5118C7.21822 10.5601 7.09924 10.5444 7.01548 10.4717L2.32393 6.56543C2.25262 6.50551 2.21136 6.4172 2.21115 6.32406C2.21054 6.23443 2.24902 6.14899 2.31655 6.09006Z" fill="black"/>
<path d="M57.7856 11.0982C57.112 10.5377 56.186 10.39 55.3715 10.7132C54.557 11.0364 53.9842 11.7789 53.8783 12.6487H25.4001C23.6537 12.6487 22.2379 14.0645 22.2379 15.8109V17.919C22.2379 19.6654 23.6537 21.0811 25.4001 21.0811H53.8783C53.9808 21.9527 54.5531 22.6979 55.3687 23.0218C56.1843 23.3458 57.1119 23.1964 57.7845 22.6326L62.494 18.7105C63.0366 18.2485 63.3485 17.5712 63.3466 16.8585C63.3448 16.1458 63.0295 15.4701 62.4845 15.0108L57.7856 11.0982ZM61.1322 17.0989L56.4322 21.0136C56.3475 21.0841 56.2296 21.0991 56.13 21.0521C56.0303 21.0051 55.9669 20.9046 55.9674 20.7944V20.027C55.9674 19.4449 55.4955 18.973 54.9133 18.973H25.4001C24.8179 18.973 24.346 18.5011 24.346 17.919V15.8109C24.346 15.2287 24.8179 14.7568 25.4001 14.7568H54.9133C55.4955 14.7568 55.9674 14.2849 55.9674 13.7028V12.9354C55.9631 12.8238 56.0281 12.7212 56.1307 12.6772C56.2303 12.6277 56.35 12.6435 56.4333 12.7172L61.1227 16.6235C61.1948 16.6831 61.2369 16.7714 61.2376 16.8649C61.2382 16.9545 61.1997 17.04 61.1322 17.0989Z" fill="black"/>
<path d="M61.2377 28.459L55.7408 28.4674C54.4397 28.4635 53.2922 29.319 52.9244 30.567H49.5799C49.0924 30.5688 48.6114 30.4554 48.176 30.2361L42.5084 27.3965C39.6954 26.0051 36.3946 26.0051 33.5816 27.3965L33.3044 27.5356L33.0219 27.3923C30.2088 26.0021 26.9084 26.0021 24.0952 27.3923L18.4298 30.2308C17.9965 30.4516 17.5173 30.5668 17.031 30.567H10.5244C10.1568 29.3197 9.01047 28.4645 7.71013 28.4674L2.21118 28.459C1.04691 28.459 0.103088 29.4028 0.103088 30.567V47.4318C0.103088 48.596 1.04691 49.5398 2.21118 49.5398L7.50143 49.5483L10.6636 50.8658C10.6148 52.2468 11.3152 53.5465 12.4955 54.2651C13.0755 54.6127 13.7388 54.7966 14.4149 54.7974C14.735 54.7968 15.0538 54.7558 15.3635 54.6752C15.3909 54.6678 15.4162 54.6541 15.4437 54.6456C15.6707 55.6576 16.3007 56.5332 17.1881 57.0699C17.7682 57.4157 18.4311 57.5978 19.1065 57.597C19.4266 57.5964 19.7453 57.5553 20.0551 57.4747C20.0825 57.4673 20.1067 57.4536 20.1341 57.4462C20.3631 58.4594 20.9959 59.3351 21.886 59.8705C22.745 60.3879 23.7768 60.5358 24.7466 60.2806C24.7709 60.2742 24.793 60.2616 24.8173 60.2553C25.0398 61.2526 25.6606 62.1156 26.5354 62.6437L26.5501 62.6522L26.5796 62.6711C27.1576 63.0189 27.8193 63.2029 28.4938 63.2034C28.8139 63.2035 29.1326 63.1628 29.4424 63.0822C30.1368 62.9023 30.7643 62.5252 31.249 61.9965L31.8636 62.474C32.5096 62.973 33.3029 63.2436 34.1192 63.2435C34.2888 63.2434 34.4582 63.2318 34.6262 63.2087C35.58 63.0831 36.4462 62.5876 37.0379 61.829C37.0547 61.81 37.0716 61.7889 37.0863 61.7689C37.6954 60.9628 37.9538 59.9452 37.8031 58.9461L37.8495 58.9409C38.828 58.8167 39.7149 58.3024 40.3086 57.5148C40.8103 56.8641 41.0831 56.066 41.0843 55.2443C41.3235 55.2587 41.5636 55.2499 41.8011 55.218C42.7777 55.0932 43.6626 54.5793 44.2549 53.7929C44.7621 53.1396 45.0373 52.3359 45.037 51.5088C45.0377 51.0875 44.9686 50.669 44.8325 50.2703C45.3511 50.1363 45.8325 49.8866 46.2407 49.5398L55.7271 49.5483H55.7334L61.2377 49.5398C62.4019 49.5398 63.3458 48.596 63.3458 47.4318V30.567C63.3458 29.4028 62.4019 28.459 61.2377 28.459ZM41.5724 29.2853L47.2273 32.1186C47.9573 32.4853 48.763 32.6759 49.5799 32.6751H52.917L54.5582 47.4381L47.4529 47.4318C47.5279 47.0911 47.5555 46.7417 47.5351 46.3935C47.4147 45.1389 46.7624 43.9961 45.7432 43.2546L35.0974 35.8088C33.7514 34.8448 31.889 35.0865 30.8338 36.3622L25.9388 42.2163C25.0305 43.2948 23.4276 43.4515 22.3276 42.5695C22.0778 42.3708 21.9329 42.0686 21.9345 41.7494C21.9344 41.5306 22.0042 41.3175 22.1337 41.1412L26.9939 34.1961C27.799 33.0465 28.8778 32.1155 30.1328 31.4872L34.5208 29.2885C36.7423 28.1899 39.3498 28.1888 41.5724 29.2853ZM2.21118 30.567L7.71013 30.5755C7.94822 30.5755 8.17503 30.677 8.33377 30.8544C8.49251 31.0319 8.56816 31.2685 8.54177 31.5051L6.76992 47.4391L2.21118 47.4318V30.567ZM13.578 52.4564C12.7763 51.966 12.512 50.9257 12.9825 50.1122L13.4483 49.3164C13.6695 48.9302 14.0369 48.6494 14.4676 48.5375C14.6034 48.5031 14.7429 48.4858 14.8829 48.4858C15.18 48.4866 15.4714 48.5678 15.7261 48.7209C16.2425 49.032 16.5551 49.5937 16.5472 50.1965C16.5485 50.4996 16.47 50.7977 16.3196 51.0608L15.8537 51.8556C15.6325 52.2422 15.2652 52.5236 14.8344 52.6366C14.4084 52.7479 13.9556 52.6829 13.578 52.4564ZM18.2706 55.2612C17.4693 54.7705 17.2055 53.7303 17.6761 52.917L18.1431 52.1191C18.3644 51.734 18.7314 51.4541 19.1613 51.3423C19.2969 51.3072 19.4364 51.2891 19.5766 51.2885C19.8737 51.2893 20.1651 51.3705 20.4198 51.5236C21.2047 52.0096 21.4711 53.0253 21.0259 53.834V53.8404L20.5484 54.6625L20.5421 54.6752C20.3205 55.055 19.9564 55.3307 19.5306 55.4407C19.1048 55.5508 18.6527 55.4861 18.2748 55.2612H18.2706ZM22.9759 58.0607C22.1744 57.5792 21.9039 56.5459 22.3666 55.7334L22.375 55.7218L22.8409 54.9239C22.8483 54.9123 22.8536 54.8986 22.8599 54.886C23.0818 54.5118 23.4435 54.2414 23.8652 54.1344C24.2868 54.0274 24.7337 54.0927 25.1071 54.3157C25.9124 54.7998 26.1815 55.8397 25.7122 56.6536L25.2336 57.4757C25.0137 57.8548 24.6512 58.13 24.227 58.24C23.8027 58.3499 23.3522 58.2853 22.9759 58.0607ZM28.9196 61.0405C28.4955 61.1529 28.044 61.0882 27.6685 60.8613L27.6537 60.8519C26.8577 60.3732 26.5911 59.3456 27.054 58.5403L27.3501 58.0302L27.5388 57.7055C27.8334 57.201 28.3733 56.8905 28.9576 56.8897C29.2589 56.8909 29.5542 56.9736 29.8124 57.129C30.6109 57.6093 30.8773 58.641 30.4111 59.4479L29.9241 60.2848C29.7029 60.6623 29.3389 60.9347 28.9143 61.0405H28.9196ZM42.755 47.8945C42.296 47.5362 41.6334 47.6178 41.2751 48.0768C40.9168 48.5358 40.9985 49.1984 41.4575 49.5567L42.2923 50.2102C42.6373 50.4757 42.8618 50.8681 42.9161 51.3C42.9703 51.7319 42.8497 52.1676 42.5811 52.5101C42.3262 52.8504 41.9451 53.0737 41.5236 53.1296C41.1022 53.1855 40.676 53.0694 40.3412 52.8074L39.6487 52.2677C39.6398 52.2597 39.6303 52.2523 39.6203 52.2456C39.1601 51.8968 38.5049 51.9833 38.1509 52.4395C37.7969 52.8957 37.8759 53.5518 38.328 53.911L38.3459 53.9247C39.0586 54.4871 39.186 55.5183 38.6316 56.2372C38.3759 56.574 37.996 56.7944 37.5767 56.8491C37.1574 56.9037 36.7336 56.7882 36.4002 56.5282C36.0816 56.2817 35.6505 56.2384 35.2892 56.4164C34.9598 56.5772 34.7368 56.8967 34.6994 57.2614C34.6621 57.6261 34.8158 57.9841 35.1058 58.2083C35.7911 58.7567 35.934 59.7425 35.4326 60.4629L35.3946 60.5103C35.1406 60.8488 34.7604 61.0701 34.3406 61.1238C33.9172 61.1815 33.4884 61.0677 33.1495 60.8076L32.3663 60.1994C33.1988 58.4292 32.5573 56.3162 30.8812 55.3076C30.0228 54.7894 28.9911 54.6411 28.0216 54.8965C27.9931 54.9039 27.9689 54.9186 27.9404 54.926C27.7116 53.9128 27.0788 53.037 26.1886 52.5017C25.3297 51.9848 24.2984 51.8369 23.329 52.0917C23.3016 52.0991 23.2773 52.1128 23.251 52.1202C23.0284 51.1249 22.4115 50.2625 21.5415 49.7304C20.6714 49.1983 19.6227 49.0421 18.6353 49.2974C18.6079 49.3048 18.5837 49.3196 18.5562 49.3269C18.3288 48.3152 17.6989 47.4398 16.8118 46.9026C15.9481 46.3868 14.9137 46.239 13.9401 46.4922C12.9665 46.7454 12.1352 47.3785 11.6322 48.2497L11.2897 48.8357L8.85166 47.826L10.5318 32.6751H17.031C17.8463 32.6762 18.6505 32.4867 19.3795 32.1218L25.0323 29.2885C26.8236 28.4083 28.8801 28.2326 30.7948 28.7963L29.1873 29.6026C27.6179 30.388 26.2694 31.5528 25.2642 32.9914L20.4103 39.928C19.4381 41.2902 19.7011 43.1749 21.009 44.219C23.007 45.815 25.9133 45.5259 27.5578 43.5676L32.4486 37.7187C32.8027 37.2881 33.4309 37.2077 33.8821 37.5353L44.4942 44.9526C45.0176 45.3318 45.3564 45.9144 45.427 46.5569C45.4721 47.0202 45.3167 47.4806 45.0001 47.8218C44.377 48.4082 43.4148 48.4394 42.755 47.8945ZM61.2377 47.4318L56.68 47.4391L54.9134 31.5051C54.887 31.2682 54.9629 31.0311 55.1221 30.8536C55.2813 30.6761 55.5087 30.5749 55.7472 30.5755L61.2377 30.567V47.4318Z" fill="black"/>
</g>
<defs>
<clipPath id="clip0_404_1037">
<rect width="63.2427" height="63.2427" fill="white" transform="translate(0.103027)"/>
</clipPath>
</defs>
</svg>
