<svg width="79" height="79" viewBox="0 0 79 79" fill="none" xmlns="http://www.w3.org/2000/svg">
<g clip-path="url(#clip0_404_982)">
<path d="M33.8893 39.3947C42.3749 39.3947 49.2538 32.5157 49.2538 24.0301C49.2538 15.5445 42.3749 8.66553 33.8893 8.66553C25.4037 8.66553 18.5248 15.5445 18.5248 24.0301C18.5248 32.5157 25.4037 39.3947 33.8893 39.3947Z" stroke="#1F1F1F" stroke-width="2.34338" stroke-linecap="round" stroke-linejoin="round"/>
<path d="M76.3312 53.8098C76.3312 53.8098 64.6645 46.6329 59.4794 45.8559C56.9332 45.4738 50.1828 45.5016 43.2749 46.2917C36.1166 47.1095 28.7913 48.1443 25.8148 48.5097C19.4632 49.2867 20.4795 57.3779 26.3119 57.2944C30.4677 57.2351 47.0339 57.1238 47.0339 57.1238" stroke="#1F1F1F" stroke-width="2.34338" stroke-linecap="round" stroke-linejoin="round"/>
<path d="M74.7749 73.1279C69.5249 70.6243 67.7742 70.2348 61.163 71.5348C53.8118 72.9794 37.7259 75.9393 33.889 76.069C30.0502 76.1988 24.7407 72.7403 19.9394 68.4211C16.0506 64.9217 11.7723 61.6801 8.27284 58.3104C4.77342 54.9408 0.884555 51.4395 1.66159 49.496C2.54989 47.2725 6.06972 46.6438 10.476 49.1066C14.8841 51.5693 17.4489 53.4536 19.2904 55.0317C21.1059 56.5876 26.4209 59.3323 30.0502 62.8484C33.4198 60.6285 37.2456 57.5797 41.522 57.1921" stroke="#1F1F1F" stroke-width="2.34338" stroke-linecap="round" stroke-linejoin="round"/>
<path d="M5.16323 47.5505C5.16323 47.5505 4.26754 42.4063 10.4781 44.181C15.0159 45.4773 19.2922 49.2362 19.2922 49.2362" stroke="#1F1F1F" stroke-width="2.34338" stroke-linecap="round" stroke-linejoin="round"/>
<path d="M20.752 32.0099C14.5431 30.0367 10.0441 24.2266 10.0441 17.363C10.0422 8.87691 16.9224 1.99854 25.4086 1.99854C30.9369 1.99854 35.7827 4.91752 38.4884 9.29786" stroke="#1F1F1F" stroke-width="2.34338" stroke-linecap="round" stroke-linejoin="round"/>
<path d="M34.0506 16.0092C35.2301 16.0092 36.2556 16.1575 37.1253 16.4524C37.995 16.7473 38.6682 17.1552 39.1467 17.6726C39.6251 18.1918 39.9756 18.7574 40.2 19.3713C40.4225 19.9851 40.5356 20.6601 40.5356 21.3926C40.5356 22.9077 39.9941 24.191 38.9093 25.2443C37.8412 26.2976 36.3409 26.8224 34.4123 26.8224C33.4387 26.8224 32.7136 26.7983 32.2351 26.7501V31.5345C32.2351 31.9332 32.0924 32.2763 31.8049 32.5637C31.5175 32.8511 31.1744 32.9939 30.7757 32.9939C30.377 32.9939 30.0099 32.8549 29.7224 32.5749C29.435 32.2948 29.2922 31.9499 29.2922 31.5345V17.515C29.2922 17.1162 29.4312 16.7732 29.7113 16.4857C29.9894 16.1983 30.3362 16.0462 30.7516 16.0314C31.4211 16.0314 32.02 16.024 32.5467 16.0073H34.0544L34.0506 16.0092ZM32.2333 18.8075V23.9498C33.079 24.0296 33.7725 24.0704 34.314 24.0704C35.2542 24.0704 36.0089 23.8386 36.5745 23.3768C37.1401 22.9151 37.4239 22.2438 37.4239 21.3667C37.4239 19.629 36.3946 18.7593 34.3381 18.7593L32.2333 18.8075Z" fill="#1F1F1F"/>
<path d="M35.4786 27.6689H31.7492C31.1178 27.6689 30.606 28.1808 30.606 28.8121C30.606 29.4434 31.1178 29.9553 31.7492 29.9553H35.4786C36.11 29.9553 36.6218 29.4434 36.6218 28.8121C36.6218 28.1808 36.11 27.6689 35.4786 27.6689Z" fill="#1F1F1F"/>
</g>
<defs>
<clipPath id="clip0_404_982">
<rect width="78.112" height="76.5498" fill="white" transform="translate(-0.00485992 0.780762)"/>
</clipPath>
</defs>
</svg>
