<svg width="67" height="67" viewBox="0 0 67 67" fill="none" xmlns="http://www.w3.org/2000/svg">
<path d="M59.1015 41.4705H58.0619C58.7377 40.5745 59.1027 39.4825 59.1015 38.3602V27.9926C59.1027 26.8703 58.7377 25.7783 58.0619 24.8823H58.0648C59.4391 24.8807 60.7567 24.334 61.7285 23.3622C62.7004 22.3904 63.247 21.0728 63.2486 19.6984V9.3308C63.247 7.95644 62.7004 6.63883 61.7285 5.66702C60.7567 4.6952 59.4391 4.14854 58.0648 4.14697H25.925C24.5507 4.14854 23.2331 4.6952 22.2613 5.66702C21.2894 6.63883 20.7428 7.95644 20.7412 9.3308V16.5882H22.8147V13.4779H61.175V15.5514H26.9618V17.6249H61.175V19.6984C61.174 20.4051 60.9328 21.0905 60.4909 21.642C60.049 22.1935 59.4327 22.5783 58.7432 22.7333L60.0288 20.1622L58.1742 19.2347L56.3872 22.8087H54.5585L55.8818 20.1622L54.0272 19.2347L52.2402 22.8087H50.4114L51.7347 20.1622L49.8801 19.2347L48.0931 22.8087H46.2643L47.5876 20.1622L45.733 19.2347L43.946 22.8087H41.4765V24.8823H43.946L45.733 28.4563L47.5876 27.5289L46.2643 24.8823H48.0931L49.8801 28.4563L51.7347 27.5289L50.4114 24.8823H52.2402L54.0272 28.4563L55.8818 27.5289L54.5962 24.9577C55.2857 25.1127 55.9019 25.4976 56.3438 26.049C56.7857 26.6005 57.027 27.2859 57.028 27.9926V30.0661H45.6236V32.1396H57.028V34.2132H47.6971V36.2867H57.028V38.3602C57.027 39.0669 56.7857 39.7523 56.3438 40.3037C55.9019 40.8552 55.2856 41.2401 54.5962 41.3951L55.8818 38.8239L54.0272 37.8965L52.2402 41.4705H50.4114L51.7347 38.8239L49.8801 37.8965L48.0931 41.4705H47.6971V43.544H49.1299L50.9169 47.118L52.7715 46.1906L51.4482 43.544H53.2769L55.0639 47.118L56.9185 46.1906L55.5952 43.544H57.424L59.211 47.118L61.0656 46.1906L59.78 43.6195C60.4695 43.7745 61.0858 44.1593 61.5277 44.7108C61.9696 45.2623 62.2108 45.9476 62.2118 46.6543V48.7279H45.6236V50.8014H62.2118V52.8749H43.55V54.9485H62.2118V57.022C62.2108 57.7287 61.9696 58.414 61.5277 58.9655C61.0858 59.517 60.4695 59.9018 59.78 60.0569L61.0656 57.4857L59.211 56.5583L57.424 60.1323H55.5952L56.9185 57.4857L55.0639 56.5583L53.2769 60.1323H51.4482L52.7715 57.4857L50.9169 56.5583L49.1299 60.1323H47.3011L48.6244 57.4857L46.7698 56.5583L44.9828 60.1323H43.154L44.4773 57.4857L42.6228 56.5583L40.8357 60.1323H36.2927V62.2058H59.1015C60.4759 62.2042 61.7935 61.6576 62.7653 60.6858C63.7371 59.714 64.2838 58.3963 64.2853 57.022V46.6543C64.2838 45.28 63.7371 43.9624 62.7653 42.9906C61.7935 42.0187 60.4759 41.4721 59.1015 41.4705ZM22.8147 11.4043V9.3308C22.8144 8.52575 23.1274 7.75216 23.6874 7.17381L24.9977 9.79451L26.8523 8.86709L25.5413 6.24502C25.6686 6.22897 25.7967 6.22078 25.925 6.2205H27.3578L29.1448 9.79451L30.9994 8.86709L29.6761 6.2205H31.5049L33.2919 9.79451L35.1464 8.86709L33.8232 6.2205H35.6519L37.4389 9.79451L39.2935 8.86709L37.9702 6.2205H39.799L41.586 9.79451L43.4406 8.86709L42.1173 6.2205H43.946L45.733 9.79451L47.5876 8.86709L46.2643 6.2205H48.0931L49.8801 9.79451L51.7347 8.86709L50.4114 6.2205H52.2402L54.0272 9.79451L55.8818 8.86709L54.5585 6.2205H56.3872L58.1742 9.79451L60.0288 8.86709L58.7432 6.29593C59.4327 6.45095 60.049 6.83579 60.4909 7.38727C60.9328 7.93876 61.174 8.62411 61.175 9.3308V11.4043H22.8147Z" fill="black"/>
<path d="M45.6235 40.4337C45.6235 28.4285 35.8566 18.6616 23.8514 18.6616C11.8462 18.6616 2.07935 28.4285 2.07935 40.4337C2.07935 52.4389 11.8462 62.2058 23.8514 62.2058C35.8566 62.2058 45.6235 52.4389 45.6235 40.4337ZM37.0474 52.1634L35.5811 53.6294L37.0211 55.0695C36.2577 55.757 35.4421 56.3841 34.5815 56.9452L33.5618 55.179L31.766 56.2158L32.7879 57.9858C31.8725 58.4534 30.9216 58.8482 29.9442 59.1666L29.4145 57.1899L27.4116 57.7265L27.9415 59.704C26.9358 59.9174 25.9149 60.0514 24.8882 60.1049V58.0587H22.8146V60.1049C21.7879 60.0514 20.767 59.9174 19.7613 59.704L20.2912 57.7265L18.2883 57.1899L17.7586 59.1666C16.7812 58.8482 15.8304 58.4534 14.9149 57.9858L15.9368 56.2158L14.141 55.179L13.1213 56.9452C12.2608 56.3842 11.4452 55.757 10.6818 55.0695L12.1217 53.6297L10.6557 52.1634L9.21565 53.6033C8.52814 52.84 7.90099 52.0243 7.33989 51.1638L9.10611 50.1441L8.06934 48.3483L6.2993 49.3702C5.8317 48.4547 5.43689 47.5039 5.11854 46.5265L7.09522 45.9968L6.55862 43.9939L4.58109 44.5238C4.36774 43.5181 4.23367 42.4972 4.18012 41.4705H6.22641V39.3969H4.18012C4.23367 38.3702 4.36774 37.3493 4.58109 36.3436L6.55862 36.8735L7.09523 34.8706L5.11855 34.3409C5.43689 33.3635 5.8317 32.4126 6.2993 31.4972L8.06935 32.5191L9.10611 30.7233L7.33989 29.7036C7.90097 28.843 8.52809 28.0274 9.21558 27.2641L10.6554 28.704L12.1217 27.238L10.6818 25.7979C11.4451 25.1104 12.2607 24.4833 13.1213 23.9222L14.141 25.6884L15.9368 24.6516L14.9149 22.8816C15.8304 22.414 16.7812 22.0192 17.7586 21.7008L18.2883 23.6775L20.2912 23.1409L19.7613 21.1634C20.767 20.95 21.7879 20.8159 22.8146 20.7624V22.8087H24.8882V20.7624C25.9149 20.8159 26.9358 20.95 27.9415 21.1634L27.4116 23.1409L29.4145 23.6775L29.9442 21.7008C30.9216 22.0192 31.8725 22.414 32.7879 22.8816L31.766 24.6516L33.5618 25.6884L34.5815 23.9222C35.4421 24.4832 36.2577 25.1104 37.021 25.7979L35.5811 27.2377L37.0471 28.704L38.4872 27.264C39.1747 28.0274 39.8018 28.843 40.3629 29.7036L38.5967 30.7233L39.6335 32.5191L41.4035 31.4972C41.8711 32.4126 42.2659 33.3635 42.5843 34.3409L40.6076 34.8706L41.1442 36.8735L43.1217 36.3436C43.3351 37.3493 43.4692 38.3702 43.5227 39.3969H41.4764V41.4705H43.5227C43.4692 42.4972 43.3351 43.5181 43.1217 44.5238L41.1442 43.9939L40.6076 45.9968L42.5843 46.5265C42.2659 47.5039 41.8711 48.4547 41.4035 49.3702L39.6335 48.3483L38.5967 50.1441L40.3629 51.1638C39.8019 52.0243 39.1747 52.8399 38.4872 53.6033L37.0474 52.1634Z" fill="black"/>
<path d="M35.2559 40.4337C35.2559 38.1781 34.5871 35.9732 33.3339 34.0978C32.0808 32.2223 30.2997 30.7606 28.2158 29.8974C26.1319 29.0342 23.8389 28.8084 21.6266 29.2484C19.4144 29.6885 17.3823 30.7746 15.7874 32.3696C14.1924 33.9645 13.1063 35.9966 12.6662 38.2088C12.2262 40.4211 12.452 42.7141 13.3152 44.798C14.1784 46.8819 15.6401 48.663 17.5155 49.9161C19.391 51.1693 21.5959 51.8381 23.8515 51.8381C26.8751 51.8347 29.7739 50.6321 31.9119 48.4941C34.0499 46.3561 35.2525 43.4573 35.2559 40.4337ZM28.7878 42.038C30.145 41.3176 31.6399 40.8936 33.1732 40.7943C33.109 42.5171 32.5658 44.188 31.6046 45.6192C30.4226 44.6385 29.4624 43.4178 28.7878 42.038ZM31.1772 34.6648C29.8801 35.4854 28.4231 36.0205 26.9032 36.2343C26.6379 34.7203 26.697 33.1673 27.0766 31.6779C28.6921 32.2775 30.111 33.3111 31.1772 34.6648ZM25.0632 31.1841C24.5276 33.2963 24.5347 35.5095 25.0837 37.6182C25.1415 37.8402 25.2713 38.0368 25.4527 38.1772C25.6342 38.3175 25.8571 38.3937 26.0865 38.3939C26.1071 38.3939 26.128 38.3932 26.1489 38.392C28.3245 38.2638 30.4321 37.5863 32.2747 36.4225C32.624 37.1544 32.8756 37.929 33.0231 38.7265C30.8483 38.87 28.7451 39.5611 26.909 40.7356C26.7066 40.8649 26.5553 41.0606 26.4812 41.2892C26.407 41.5177 26.4145 41.7649 26.5024 41.9885C27.2974 44.0154 28.5919 45.8084 30.2657 47.2009C29.6779 47.7595 29.0201 48.2396 28.3088 48.6291C27.5002 46.6054 26.1934 44.8188 24.5097 43.435C24.3242 43.2826 24.0915 43.1992 23.8513 43.1993C23.6112 43.1993 23.3785 43.2827 23.193 43.4353C21.5083 44.8178 20.2017 46.6051 19.3955 48.6299C18.6844 48.2406 18.0267 47.7607 17.4389 47.2023C19.1109 45.8079 20.4046 44.0147 21.2006 41.9884C21.2885 41.7648 21.296 41.5176 21.2218 41.2891C21.1476 41.0606 20.9964 40.8649 20.794 40.7356C18.9585 39.5599 16.8548 38.8691 14.6797 38.7278C14.827 37.9304 15.0785 37.1558 15.4277 36.4239C17.272 37.5845 19.3791 38.2613 21.5542 38.392C21.5751 38.3932 21.5959 38.3939 21.6165 38.3939C21.8459 38.3937 22.0688 38.3175 22.2503 38.1771C22.4318 38.0367 22.5616 37.8401 22.6193 37.6181C23.1697 35.5096 23.1763 33.296 22.6386 31.1843C23.4431 31.0757 24.2586 31.0757 25.0632 31.1841ZM16.0988 45.6197C15.1374 44.1885 14.594 42.5176 14.5298 40.7947C16.0633 40.8926 17.5584 41.3163 18.9152 42.0377C18.2397 43.4171 17.2799 44.6378 16.0988 45.6197ZM20.626 31.678C21.0074 33.1671 21.0668 34.7203 20.8002 36.2341C19.2808 36.0178 17.8242 35.4831 16.5257 34.6649C17.5919 33.3113 19.0106 32.2777 20.626 31.678ZM21.3148 49.4113C21.8814 47.9828 22.7462 46.6917 23.8515 45.6241C24.9554 46.6929 25.82 47.9837 26.3882 49.4112C24.7299 49.8824 22.9732 49.8824 21.3148 49.4113Z" fill="black"/>
<path d="M23.8515 41.4705C24.4241 41.4705 24.8883 41.0063 24.8883 40.4337C24.8883 39.8611 24.4241 39.397 23.8515 39.397C23.2789 39.397 22.8147 39.8611 22.8147 40.4337C22.8147 41.0063 23.2789 41.4705 23.8515 41.4705Z" fill="black"/>
<path d="M11.7246 46.3203L9.85962 47.2267C11.1344 49.8529 13.1228 52.0671 15.5973 53.616C18.0717 55.1649 20.9322 55.986 23.8514 55.9852V53.9117C21.3212 53.9124 18.842 53.2008 16.6973 51.8582C14.5527 50.5157 12.8294 48.5965 11.7246 46.3203Z" fill="black"/>
<path d="M35.9783 34.5472L37.8432 33.6408C36.5684 31.0146 34.58 28.8004 32.1056 27.2515C29.6312 25.7026 26.7707 24.8815 23.8515 24.8823V26.9559C26.3816 26.9551 28.8609 27.6667 31.0055 29.0093C33.1501 30.3518 34.8735 32.271 35.9783 34.5472Z" fill="black"/>
<path d="M12.4833 33.1902C13.8248 31.0877 15.722 29.3976 17.9648 28.3069L17.0584 26.4419C14.4322 27.7167 12.218 29.7051 10.6691 32.1795C9.12017 34.654 8.29913 37.5144 8.29993 40.4337H10.3735C10.3702 37.8672 11.1024 35.3535 12.4833 33.1902Z" fill="black"/>
<path d="M37.3294 40.4336C37.3301 42.9638 36.6185 45.443 35.276 47.5876C33.9335 49.7323 32.0143 51.4556 29.7381 52.5604L30.6445 54.4254C33.2706 53.1505 35.4849 51.1621 37.0338 48.6877C38.5827 46.2133 39.4037 43.3528 39.4029 40.4336H37.3294Z" fill="black"/>
</svg>
