<svg width="35" height="35" viewBox="0 0 35 35" fill="none" xmlns="http://www.w3.org/2000/svg">
<g clip-path="url(#clip0_404_583)">
<mask id="mask0_404_583" style="mask-type:luminance" maskUnits="userSpaceOnUse" x="0" y="0" width="35" height="35">
<path d="M0 3.8147e-06H35V35H0V3.8147e-06Z" fill="white"/>
</mask>
<g mask="url(#mask0_404_583)">
<path d="M4.78516 23.6523C5.1625 23.6523 5.46875 23.9586 5.46875 24.3359C5.46875 24.7133 5.1625 25.0195 4.78516 25.0195C4.40781 25.0195 4.10156 24.7133 4.10156 24.3359C4.10156 23.9586 4.40781 23.6523 4.78516 23.6523Z" fill="#C7001F"/>
<path d="M18.1535 8.88672C16.6229 8.87852 15.6153 8.24209 15.13 7.40605C14.9044 7.01709 14.7916 6.58506 14.7923 6.15234C14.793 5.56787 15.0001 4.9834 15.4137 4.50557C15.9668 3.86572 16.8903 3.41797 18.1836 3.41797C19.5549 3.41797 20.5099 3.91973 21.0486 4.61973C21.4006 5.075 21.5756 5.61367 21.575 6.15234C21.575 6.54473 21.4813 6.93711 21.2946 7.29736C20.8339 8.18604 19.8071 8.87783 18.2137 8.88672" stroke="#C7001F" stroke-width="1.67969" stroke-miterlimit="10" stroke-linecap="round" stroke-linejoin="round"/>
<path d="M15.13 7.40596C15.13 7.40596 11.2704 9.67412 11.2595 9.68034C11.2711 9.67344 11.2568 9.68164 11.2034 9.71377C11.1952 9.71855 11.1857 9.72402 11.1761 9.72949C11.1939 9.71924 11.1795 9.72744 11.1446 9.74795C11.1323 9.75478 11.1193 9.76299 11.105 9.77126C11.0148 9.82383 10.9225 9.87851 10.9225 9.87851C10.3476 10.2169 9.63732 10.3502 8.89288 10.18C7.51203 9.86348 6.73068 8.08476 6.58712 6.15019C6.39435 3.55664 7.34728 0.683496 9.53888 0.683496C10.1685 0.683496 10.7488 0.896161 11.211 1.25361C11.211 1.25361 11.3374 1.35137 11.347 1.35889L11.3484 1.36032C11.3641 1.37187 11.3831 1.38691 11.3859 1.38896L11.4899 1.46963C11.4912 1.47031 11.4926 1.47168 11.4933 1.47168V1.47236L15.4137 4.50547" stroke="#C7001F" stroke-width="1.67969" stroke-miterlimit="10" stroke-linecap="round" stroke-linejoin="round"/>
<path d="M25.3565 9.68443L25.3706 9.69287" stroke="#C7001F" stroke-width="1.67969" stroke-miterlimit="10" stroke-linecap="round" stroke-linejoin="round"/>
<path d="M21.0492 4.61895L25.3982 1.25361C25.861 0.896095 26.4407 0.683498 27.0703 0.683498C29.2612 0.683498 30.2155 3.55664 30.0221 6.15013C29.8792 8.0847 29.0978 9.86348 27.717 10.18C26.9719 10.3502 26.2623 10.2169 25.6867 9.87845L25.4064 9.7137C25.3593 9.68574 25.349 9.68027 25.3702 9.69258C25.3654 9.68916 25.3606 9.68711 25.3565 9.68438L25.3326 9.67002H25.3319L25.3299 9.66865L25.3292 9.6679L21.2946 7.29727" stroke="#C7001F" stroke-width="1.67969" stroke-miterlimit="10" stroke-linecap="round" stroke-linejoin="round"/>
<path d="M21.2946 7.29756L28.4129 17.0859L24.6777 16.0852L23.677 19.8203L18.1535 8.88692H18.2137L12.6902 19.8203L11.6894 16.0852L7.95436 17.0859L15.13 7.40625" stroke="#C7001F" stroke-width="1.67969" stroke-miterlimit="10" stroke-linecap="round" stroke-linejoin="round"/>
<path d="M30.0467 6.15234H32.9492C33.7046 6.15234 34.3164 6.76416 34.3164 7.51953V12.9883H25.4331" stroke="#C7001F" stroke-width="1.67969" stroke-miterlimit="10" stroke-linecap="round" stroke-linejoin="round"/>
<path d="M10.9915 12.9883H0.683594V7.51953C0.683594 6.76416 1.29541 6.15234 2.05078 6.15234H6.5625" stroke="#C7001F" stroke-width="1.67969" stroke-miterlimit="10" stroke-linecap="round" stroke-linejoin="round"/>
<path d="M32.9492 12.9883V32.9492C32.9492 33.7046 31.9272 34.3164 31.1719 34.3164H3.41797C2.6626 34.3164 2.05078 33.7046 2.05078 32.9492V12.9883" stroke="#C7001F" stroke-width="1.67969" stroke-miterlimit="10" stroke-linecap="round" stroke-linejoin="round"/>
<path d="M12.0312 6.15234H14.7923" stroke="#C7001F" stroke-width="1.67969" stroke-miterlimit="10" stroke-linecap="round" stroke-linejoin="round"/>
<path d="M21.5749 6.15234H24.336" stroke="#C7001F" stroke-width="1.67969" stroke-miterlimit="10" stroke-linecap="round" stroke-linejoin="round"/>
<path d="M20.2344 13.0054V34.3164" stroke="#C7001F" stroke-width="1.67969" stroke-miterlimit="10" stroke-linecap="round" stroke-linejoin="round"/>
<path d="M16.1328 34.3164V13.0054" stroke="#C7001F" stroke-width="1.67969" stroke-miterlimit="10" stroke-linecap="round" stroke-linejoin="round"/>
<path d="M4.78516 27.0703V31.582" stroke="#C7001F" stroke-width="1.67969" stroke-miterlimit="10" stroke-linecap="round" stroke-linejoin="round"/>
</g>
</g>
<defs>
<clipPath id="clip0_404_583">
<rect width="35" height="35" fill="white"/>
</clipPath>
</defs>
</svg>
