<svg width="49" height="49" viewBox="0 0 49 49" fill="none" xmlns="http://www.w3.org/2000/svg">
<g clip-path="url(#clip0_404_576)">
<path d="M14.7591 28.6224C14.5529 28.5496 14.342 28.4731 14.1317 28.3935V25.0359C14.6602 25.1624 14.9752 25.4296 15.0032 25.454C15.2916 25.7153 15.7373 25.6956 16.0018 25.409C16.2676 25.1208 16.2494 24.6715 15.9612 24.4057C15.9208 24.3684 15.2425 23.7572 14.1317 23.5906V22.9048C14.1317 22.5128 13.8138 22.1948 13.4217 22.1948C13.0296 22.1948 12.7117 22.5128 12.7117 22.9048V23.6451C12.6063 23.6683 12.4994 23.695 12.3901 23.728C11.3744 24.034 10.6155 24.9032 10.4094 25.9965C10.2217 26.9934 10.5409 27.9546 11.2429 28.5052C11.6148 28.7969 12.0777 29.0641 12.7118 29.3463V33.6037C12.1633 33.5633 11.7834 33.4294 11.1608 33.0221C10.8326 32.8073 10.3925 32.8994 10.1779 33.2276C9.96328 33.5557 10.0552 33.9958 10.3834 34.2104C11.2911 34.8042 11.9112 34.9812 12.7118 35.0263V35.7941C12.7118 36.1862 13.0297 36.5042 13.4218 36.5042C13.8139 36.5042 14.1318 36.1862 14.1318 35.7941V34.9699C15.7248 34.6573 16.6553 33.3438 16.8616 32.1167C17.1266 30.5393 16.3014 29.1677 14.7591 28.6224ZM12.1191 27.3879C11.836 27.1657 11.7155 26.7334 11.8048 26.2595C11.8848 25.8349 12.1651 25.3247 12.7116 25.1184V27.7666C12.4886 27.6456 12.2869 27.5195 12.1191 27.3879ZM15.4609 31.8814C15.3516 32.5314 14.899 33.2204 14.1316 33.495V29.9062C14.1828 29.9246 14.233 29.9428 14.2857 29.9614C15.5978 30.4251 15.517 31.5482 15.4609 31.8814Z" fill="#C7001F"/>
<path d="M48.9609 27.7089C48.8387 27.154 48.4476 26.7058 47.9143 26.5098L45.8821 25.7629C45.5142 25.6276 45.106 25.8163 44.9707 26.1843C44.8355 26.5524 45.0241 26.9605 45.3923 27.0957L47.4245 27.8427C47.5303 27.8815 47.5636 27.9667 47.5739 28.014C47.5844 28.0613 47.5899 28.1525 47.5101 28.2322L29.3691 46.3733C29.2892 46.4532 29.1979 46.4475 29.1508 46.4371C29.1035 46.4267 29.0184 46.3935 28.9796 46.2875L26.4301 39.3511C26.2621 38.894 25.9036 38.5356 25.4466 38.3676L18.5102 35.8183C18.4044 35.7793 18.3712 35.6943 18.3607 35.647C18.3503 35.5997 18.3448 35.5085 18.4245 35.4288L36.5657 17.2877C36.6455 17.2079 36.7365 17.2135 36.7839 17.2238C36.8312 17.2343 36.9162 17.2675 36.9551 17.3733L39.5044 24.3097C39.6724 24.7669 40.031 25.1253 40.4881 25.2932L42.2523 25.9416C42.6203 26.077 43.0284 25.8882 43.1636 25.5202C43.2989 25.1521 43.1102 24.744 42.7421 24.6088L40.9778 23.9603C40.9126 23.9364 40.8614 23.8852 40.8375 23.8199L38.2881 16.8835C38.0921 16.3503 37.644 15.9591 37.0892 15.837C36.5346 15.7148 35.9634 15.8819 35.5616 16.2836L34.8748 16.9703V9.926C34.8748 9.01251 34.1316 8.26928 33.2181 8.26928H25.9864C26.648 6.98303 26.4412 5.36201 25.365 4.28583C24.4435 3.3644 23.1073 3.06169 21.9102 3.4445C21.4478 2.10332 20.1738 1.13672 18.6776 1.13672C17.1815 1.13672 15.9076 2.10313 15.4451 3.44412C14.2481 3.06064 12.9132 3.36277 11.9904 4.28573C11.3446 4.93144 10.9889 5.79 10.9889 6.70329C10.9889 7.25722 11.1206 7.79077 11.3677 8.26919H10.7721C10.38 8.26919 10.062 8.58711 10.062 8.97921C10.062 9.3713 10.38 9.68923 10.7721 9.68923H15.8319V16.4094C15.0463 16.2664 14.2467 16.1924 13.4427 16.1924C11.9627 16.1924 10.57 16.4231 9.23727 16.867L3.90067 16.8672V9.9259C3.90067 9.79536 4.0068 9.68923 4.13734 9.68923H7.3745C7.7666 9.68923 8.08452 9.3713 8.08452 8.97921C8.08452 8.58711 7.7666 8.26919 7.3745 8.26919H4.13715C3.22366 8.26919 2.48043 9.01242 2.48043 9.9259V21.849C2.48043 21.8533 2.48101 21.8575 2.4811 21.8619C0.919228 24.0579 0 26.7411 0 29.635C0 32.5224 0.905543 35.2761 2.61872 37.5987C2.75797 37.7874 2.97283 37.8872 3.19065 37.8872C3.33707 37.8872 3.48474 37.8421 3.61155 37.7485C3.92718 37.5158 3.99427 37.0712 3.76142 36.7556C2.2296 34.679 1.41995 32.2167 1.41995 29.6349C1.41995 23.0057 6.8132 17.6126 13.4424 17.6126C18.9989 17.6126 23.7755 21.3561 25.1105 26.7344L23.9085 27.9365C23.5489 25.7041 22.4849 23.6481 20.8348 22.0412C18.8422 20.1012 16.2169 19.0326 13.4424 19.0326C7.59624 19.0326 2.83999 23.7888 2.83999 29.6349C2.83999 35.481 7.59615 40.2373 13.4424 40.2373C15.8552 40.2373 18.1923 39.4115 20.07 37.9045L21.5919 38.4638C19.3795 40.5041 16.4644 41.6573 13.4424 41.6573C10.6995 41.6573 8.01475 40.7052 5.88268 38.9764C5.57815 38.7294 5.13103 38.7761 4.88402 39.0807C4.63701 39.3853 4.68371 39.8324 4.98833 40.0795C7.37249 42.0128 10.3749 43.0775 13.4424 43.0775C17.0618 43.0775 20.5435 41.5989 23.0693 39.0068L24.9567 39.7005C25.022 39.7245 25.0732 39.7757 25.0971 39.841L27.6464 46.7773C27.8424 47.3106 28.2906 47.7017 28.8453 47.8239C28.9649 47.8502 29.0853 47.8631 29.2046 47.8631C29.6385 47.8631 30.0578 47.6925 30.373 47.3773L48.5142 29.2363C48.9159 28.8346 49.0829 28.2637 48.9609 27.7089ZM3.90048 20.1765V18.2874H6.24386C5.39316 18.829 4.60734 19.4634 3.90048 20.1765ZM33.4547 9.926V16.8672H21.5233V9.68932H33.218C33.3485 9.68932 33.4547 9.79556 33.4547 9.926ZM24.3608 5.28995C25.1402 6.06935 25.1402 7.33752 24.3609 8.11673C24.3298 8.14793 24.2695 8.19961 24.1647 8.26928H20.7053C21.7359 6.33062 22.0031 5.38201 22.0721 4.90541C22.8328 4.53351 23.7517 4.6808 24.3608 5.28995ZM18.6775 2.55676C19.7797 2.55676 20.6765 3.4535 20.6765 4.55562C20.6765 4.7608 20.5597 5.63094 19.0879 8.26919H18.2672C16.7957 5.63161 16.6787 4.76119 16.6787 4.55562C16.6787 3.4535 17.5753 2.55676 18.6775 2.55676ZM12.9944 8.11683C12.6168 7.73928 12.4089 7.23731 12.4089 6.70339C12.4089 6.16946 12.6168 5.6675 12.9944 5.28995C13.6046 4.67974 14.5222 4.53332 15.283 4.9058C15.3521 5.38259 15.6191 6.33072 16.6498 8.26928H13.1906C13.0858 8.19971 13.0256 8.14803 12.9944 8.11683ZM17.2517 9.68932H20.1033V16.8672H17.6448C17.6416 16.8672 17.6387 16.8676 17.6355 16.8677C17.5082 16.8258 17.3802 16.7864 17.2517 16.7483V9.68932ZM21.844 19.1482C21.4577 18.8383 21.0551 18.5512 20.639 18.2874H33.4548V18.3904L30.7062 21.139H23.8495C23.2548 20.4104 22.5832 19.7416 21.844 19.1482ZM24.8636 22.559H29.286L26.2601 25.5849C25.9225 24.5223 25.4517 23.5051 24.8636 22.559ZM13.4425 38.8173C8.37929 38.8173 4.26022 34.6982 4.26022 29.6351C4.26022 24.572 8.37938 20.4529 13.4425 20.4529C18.3167 20.4529 22.4018 24.3775 22.6152 29.23L17.4205 34.4248C17.0188 34.8264 16.8518 35.3975 16.9739 35.9523C17.096 36.5071 17.4873 36.9552 18.0204 37.1512L18.468 37.3158C16.9811 38.2905 15.2358 38.8173 13.4425 38.8173Z" fill="#C7001F"/>
<path d="M34.815 37.8121C34.9044 37.8121 34.9955 37.795 35.0833 37.7591C35.4463 37.6107 35.6203 37.1961 35.4719 36.8331L31.3836 26.8318C31.2354 26.4689 30.8209 26.2946 30.4577 26.4432C30.0947 26.5916 29.9207 27.0061 30.0692 27.3691L34.1574 37.3705C34.2698 37.6455 34.535 37.8121 34.815 37.8121Z" fill="#C7001F"/>
<path d="M26.3735 29.7926C25.876 30.2901 25.6327 30.9732 25.6884 31.7162C25.7412 32.419 26.0597 33.0956 26.5852 33.6211C27.1108 34.1467 27.7873 34.4652 28.4902 34.5179C28.5599 34.5231 28.6291 34.5257 28.6976 34.5257C29.3597 34.5257 29.9629 34.2836 30.4138 33.8328C30.9112 33.3354 31.1545 32.6522 31.0988 31.9093C31.0461 31.2064 30.7276 30.5298 30.2021 30.0042C29.6765 29.4786 29 29.1601 28.297 29.1075C27.5535 29.0515 26.8708 29.2952 26.3735 29.7926ZM29.198 31.0084C29.4833 31.2938 29.6555 31.6515 29.6828 32.0155C29.7071 32.3395 29.6101 32.6283 29.4096 32.8288C29.2092 33.0292 28.92 33.1259 28.5964 33.102C28.2323 33.0747 27.8747 32.9025 27.5893 32.6171C27.304 32.3317 27.1317 31.9741 27.1045 31.6101C27.0802 31.2862 27.1772 30.9973 27.3777 30.7968C27.5579 30.6166 27.8095 30.5201 28.094 30.5201C28.1259 30.5201 28.1582 30.5213 28.1909 30.5237C28.5549 30.5509 28.9126 30.7231 29.198 31.0084C29.1979 31.0084 29.1979 31.0084 29.198 31.0084Z" fill="#C7001F"/>
<path d="M37.5071 35.3499C38.1693 35.3499 38.7725 35.1077 39.2233 34.657C40.2204 33.6598 40.1255 31.9424 39.0117 30.8284C37.8979 29.7145 36.1803 29.6196 35.1831 30.6167C34.1859 31.6138 34.2809 33.3313 35.3948 34.4452C35.9204 34.9708 36.5969 35.2893 37.2998 35.3419C37.3696 35.3473 37.4387 35.3499 37.5071 35.3499ZM36.1873 31.6209C36.3753 31.4328 36.6304 31.3416 36.9047 31.3416C37.277 31.3416 37.6848 31.51 38.0075 31.8326C38.5677 32.3928 38.6626 33.2095 38.2191 33.653C38.0186 33.8533 37.7297 33.9503 37.406 33.9261C37.0419 33.8988 36.6842 33.7266 36.3989 33.4413C35.8387 32.8809 35.7438 32.0644 36.1873 31.6209Z" fill="#C7001F"/>
</g>
<defs>
<clipPath id="clip0_404_576">
<rect width="49" height="49" fill="white"/>
</clipPath>
</defs>
</svg>
