<svg width="48" height="48" viewBox="0 0 48 48" fill="none" xmlns="http://www.w3.org/2000/svg">
<path d="M24.1355 27.432C24.8617 26.1747 24.313 24.4135 22.5485 22.3387C20.9546 20.4647 18.526 18.5377 15.7102 16.913C10.4404 13.8681 3.97997 12.1194 2.38697 14.8759C2.38678 14.8761 2.38668 14.8766 2.3865 14.8769L1.8509 15.8057C1.38122 16.6205 0.911153 17.4359 0.439403 18.2504C-0.287347 19.5078 0.261372 21.2691 2.02603 23.3441C3.61987 25.2182 6.04847 27.1451 8.86444 28.77C12.2938 30.7505 16.2265 32.1823 18.9947 32.1823C20.4807 32.1823 21.6315 31.7693 22.1878 30.807L24.1355 27.432ZM5.55497 14.8172C7.725 14.8172 11.2842 15.8719 15.0538 18.0499C17.743 19.6016 20.0495 21.4268 21.5483 23.1893C22.8618 24.7337 23.4038 26.0743 22.9986 26.7756L22.9983 26.7761C22.5938 27.4774 21.1621 27.678 19.1681 27.3127C16.8922 26.8959 14.1579 25.8111 11.4686 24.2581C5.89593 21.0425 2.67815 16.9988 3.52425 15.5317C3.79856 15.0578 4.518 14.8172 5.55497 14.8172ZM21.0507 30.1506C20.7774 30.6234 20.0598 30.8636 19.0267 30.8646L19.4291 30.1664L18.2918 29.5108L17.5826 30.7411C16.8601 30.6278 16.0534 30.4369 15.1851 30.1661L15.7217 29.2367L14.5848 28.5802L13.9206 29.7306C13.2164 29.4663 12.483 29.1551 11.7305 28.7965L12.3096 27.7937L11.1727 27.1372L10.5556 28.2059C10.213 28.0244 9.86775 27.8335 9.52059 27.6331C9.17653 27.4345 8.83893 27.2314 8.50818 27.0245L9.1259 25.9548L7.989 25.2983L7.4084 26.3038C6.73172 25.8404 6.09281 25.3634 5.50134 24.8793L6.17081 23.7198L5.0339 23.0633L4.49128 24.0031C3.94481 23.4999 3.45187 22.9943 3.02606 22.4936C2.9459 22.3993 2.86865 22.3058 2.79431 22.2132L3.50831 20.9741L2.37084 20.3187L1.96781 21.0181C1.45518 20.1183 1.30715 19.3724 1.57556 18.9079C1.84622 18.4405 2.11584 17.9724 2.38584 17.5045C3.43237 20.0899 6.98287 23.1854 10.8123 25.3951C13.6281 27.0213 16.5116 28.1609 18.9315 28.6041C19.6702 28.7394 20.342 28.8066 20.9427 28.8066C21.2708 28.8066 21.5765 28.7854 21.8617 28.7455L21.0507 30.1506ZM4.38872 17.1741C4.25287 16.6659 4.37137 16.3052 4.49475 16.0921C5.77518 13.8733 12.5587 17.434 13.9056 18.1702L13.2758 19.3221C11.3992 18.2962 9.54703 17.4884 8.06006 17.0477C6.32362 16.5329 5.75765 16.7031 5.64009 16.7565C5.65275 16.9581 5.964 17.6664 7.32993 18.9111C8.61984 20.0867 10.4417 21.3759 12.4598 22.5413C14.478 23.7067 16.5055 24.6401 18.1688 25.1695C19.9379 25.7326 20.7059 25.6444 20.8821 25.554C20.8721 25.3557 20.5642 24.6464 19.1922 23.3958C17.9017 22.2193 16.0799 20.9304 14.0624 19.7666L14.7185 18.6294C18.0586 20.5564 21.6466 23.3146 22.1332 25.133C22.2693 25.6417 22.1509 26.0026 22.0274 26.2158C21.9055 26.4277 21.6524 26.7111 21.144 26.8478C20.9329 26.9045 20.6897 26.9314 20.4196 26.9314C18.3668 26.9314 14.7559 25.3834 11.8033 23.6783C8.46243 21.749 4.87406 18.9896 4.38872 17.1741ZM19.15 12.937H17.6353V11.6242H19.15V10.1094H20.4629V11.6242H21.975V12.937H20.4629V14.4518H19.15V12.937ZM24.6277 19.9438C25.0226 20.6275 25.418 21.3117 25.8128 21.998C26.3685 22.9593 27.5176 23.3715 29.0033 23.3714C31.7711 23.3711 35.7056 21.9397 39.1358 19.9604C41.9523 18.3338 44.3809 16.4066 45.9741 14.5336C47.7387 12.459 48.2874 10.698 47.5609 9.44089C46.9102 8.31477 46.2621 7.19127 45.6139 6.06758C45.6137 6.0672 45.6135 6.06674 45.6132 6.06636C45.6132 6.06627 45.6131 6.06617 45.6131 6.06608C44.8869 4.80777 43.0865 4.40211 40.4074 4.8928C37.9885 5.33586 35.1057 6.47502 32.2899 8.10055C27.0185 11.1448 22.2742 15.8671 23.8646 18.6223C24.1186 19.0628 24.373 19.5033 24.6277 19.9438ZM46.0321 12.2081L45.6293 11.5091L44.4919 12.1645L45.2055 13.403C45.1312 13.4955 45.0542 13.5889 44.9741 13.6829C44.5483 14.1834 44.0554 14.689 43.5089 15.1922L42.9659 14.2533L41.8296 14.9105L42.499 16.0682C41.9074 16.5524 41.2683 17.0297 40.5913 17.4935L40.0111 16.4885L38.8742 17.145L39.4917 18.2145C39.1612 18.4214 38.8236 18.6246 38.4795 18.8234C38.1323 19.0237 37.787 19.2145 37.4443 19.3959L36.8274 18.3276L35.6905 18.9841L36.2692 19.9863C35.5167 20.3446 34.7833 20.6555 34.0792 20.9198L33.4156 19.7684L32.2781 20.424L32.8148 21.3551C31.9462 21.6259 31.1393 21.8169 30.4168 21.9303L29.7082 20.7012L28.571 21.3568L28.973 22.0542C27.94 22.0536 27.2228 21.814 26.95 21.3421C26.6799 20.8727 26.4091 20.4041 26.1384 19.9354C26.4232 19.9751 26.7283 19.9963 27.0559 19.9963C27.657 19.9963 28.3295 19.929 29.0687 19.7935C31.4878 19.3501 34.3712 18.2108 37.1879 16.5854C41.0167 14.3743 44.5669 11.2779 45.6137 8.69314C45.8839 9.16133 46.1534 9.62877 46.4243 10.0977C46.6928 10.5625 46.5448 11.3084 46.0321 12.2081ZM32.9464 9.23755C35.6353 7.68524 38.369 6.60092 40.6437 6.1842C41.2992 6.0642 41.894 6.00533 42.4116 6.00533C43.4687 6.00533 44.2039 6.25095 44.4759 6.72224C44.476 6.72233 44.476 6.72252 44.4761 6.72261C45.3202 8.18849 42.1023 12.2313 36.5314 15.4485C33.8415 17.0007 31.1071 18.0852 28.8318 18.5022C26.8378 18.8678 25.4063 18.6675 25.0019 17.967C25.0018 17.9668 25.0017 17.9667 25.0016 17.9665L25.0014 17.9663C24.1555 16.5004 27.3733 12.456 32.9464 9.23755ZM27.5892 18.124C28.2069 18.124 28.9841 17.9836 29.9267 17.7032C31.7377 17.1643 33.9643 16.1577 36.1966 14.8687C38.4302 13.5789 40.4153 12.1539 41.7864 10.8562C43.4329 9.29783 43.9953 8.1282 43.5053 7.27995C43.0157 6.43405 41.7222 6.33702 39.55 6.98399C37.7412 7.52267 35.515 8.52889 33.2815 9.8173L33.2812 9.81739C31.0477 11.1072 29.0626 12.5322 27.6915 13.8299C26.0451 15.3883 25.4827 16.5579 25.9718 17.4051C26.2483 17.8848 26.7829 18.124 27.5892 18.124ZM28.8054 14.5868C30.0952 13.4107 31.9177 12.1206 33.9374 10.9544C35.9568 9.78945 37.9847 8.85655 39.6475 8.32742C41.4139 7.76549 42.1819 7.8523 42.36 7.94267C42.3497 8.1417 42.0421 8.85017 40.6723 10.0992C39.3825 11.2753 37.5599 12.5654 35.5401 13.7318C33.523 14.8965 31.4958 15.8295 29.8316 16.3588C28.0642 16.921 27.2956 16.8339 27.1177 16.7437C27.1278 16.5453 27.4349 15.8366 28.8054 14.5868ZM15.7857 35.8791H17.3004V37.1918H15.7857V38.7065H14.4728V37.1918H12.9607V35.8791H14.4728V34.367H15.7857V35.8791ZM43.9254 26.0022C42.3335 23.2476 35.8729 24.9963 30.6024 28.0398C27.786 29.6663 25.3574 31.5935 23.7642 33.4666C21.9996 35.5412 21.4508 37.3022 22.1774 38.5593C22.8283 39.6859 23.4767 40.8098 24.1252 41.934C24.6513 42.8455 25.7409 43.3096 27.3202 43.3096C27.9209 43.3096 28.5925 43.2425 29.3309 43.1072C31.7497 42.6641 34.6326 41.525 37.4483 39.8994C42.7198 36.8552 47.464 32.1329 45.8737 29.3777C45.2252 28.2535 44.5766 27.1293 43.9254 26.0022ZM24.7641 34.3172C26.2625 32.5555 28.5692 30.7299 31.2589 29.1766C35.0299 26.999 38.589 25.9447 40.7589 25.9447C41.7953 25.9447 42.515 26.1854 42.7887 26.6591C42.7889 26.6594 42.7891 26.6597 42.7892 26.66C43.633 28.127 40.4153 32.1701 34.8439 35.3876C32.1535 36.94 29.4195 38.0244 27.1453 38.441C25.1527 38.8059 23.721 38.6053 23.3148 37.904C23.3145 37.9035 23.3142 37.903 23.3139 37.9025L23.3138 37.9025C22.9087 37.2013 23.4508 35.861 24.7641 34.3172ZM44.3436 32.1433L43.9415 31.4474L42.8047 32.1042L43.5145 33.3325C43.0552 33.9019 42.4862 34.5053 41.8175 35.1223L41.2816 34.1931L40.1443 34.8488L40.8081 35.9999C40.2274 36.4774 39.5916 36.9569 38.9051 37.4293L38.3264 36.4254L37.1891 37.081L37.8063 38.1517C37.4775 38.358 37.1392 38.5619 36.7917 38.7625C36.4482 38.9608 36.1041 39.1512 35.7603 39.3337L35.1426 38.264L34.0057 38.9204L34.5861 39.9256C33.8457 40.2801 33.1127 40.595 32.3973 40.8653L31.7275 39.7067L30.591 40.3637L31.1333 41.3019C30.4247 41.5235 29.7406 41.6975 29.0944 41.8159C28.9727 41.8382 28.8532 41.8582 28.7357 41.8763L28.0206 40.6372L26.8835 41.2935L27.2879 41.9943C26.2516 41.9883 25.5308 41.7433 25.2622 41.2778C24.9923 40.8099 24.7215 40.3412 24.4515 39.8732C24.7403 39.9136 25.0466 39.9344 25.37 39.9344C28.1376 39.9343 32.0707 38.5034 35.5004 36.5244C39.3298 34.313 42.8803 31.216 43.9268 28.6307C44.1966 29.0982 44.467 29.5663 44.7367 30.0337C45.0095 30.5067 44.859 31.2482 44.3436 32.1433ZM25.9018 38.0627C26.5197 38.0627 27.2974 37.9221 28.2403 37.6412C30.0491 37.1025 32.2753 36.0963 34.509 34.8078C36.7426 33.518 38.7277 32.093 40.0988 30.7953C41.7453 29.2369 42.3077 28.0672 41.8188 27.2206C41.6959 27.007 41.4427 26.7236 40.9343 26.5869C39.1183 26.0988 34.9348 27.827 31.5937 29.7563C29.3601 31.0461 27.3749 32.4711 26.0039 33.7688C24.3575 35.3272 23.7951 36.4969 24.2849 37.3451C24.562 37.8239 25.0963 38.0627 25.9018 38.0627ZM27.1179 34.5259C28.4077 33.3497 30.2303 32.0596 32.2501 30.8932C34.2682 29.7278 36.2958 28.7945 37.9591 28.2651C39.7283 27.7021 40.4962 27.7903 40.6724 27.8807C40.663 28.0783 40.3567 28.7871 38.9847 30.0382C37.6949 31.2143 35.8723 32.5044 33.8527 33.6707C31.8333 34.8356 29.8054 35.7685 28.1425 36.2976C26.3764 36.8595 25.6081 36.7727 25.4302 36.6825C25.4407 36.4835 25.7482 35.775 27.1179 34.5259ZM45.9641 21.0476H47.4762V22.3604H45.9641V23.8751H44.6512V22.3604H43.1365V21.0476H44.6512V19.5355H45.9641V21.0476Z" fill="#C7001F"/>
</svg>
